<?xml version="1.0" encoding="UTF-8" standalone="no"?>
<!-- Created with Inkscape (http://www.inkscape.org/) -->

<svg
   xmlns:dc="http://purl.org/dc/elements/1.1/"
   xmlns:cc="http://creativecommons.org/ns#"
   xmlns:rdf="http://www.w3.org/1999/02/22-rdf-syntax-ns#"
   xmlns:svg="http://www.w3.org/2000/svg"
   xmlns="http://www.w3.org/2000/svg"
   xmlns:sodipodi="http://sodipodi.sourceforge.net/DTD/sodipodi-0.dtd"
   xmlns:inkscape="http://www.inkscape.org/namespaces/inkscape"
   width="100"
   height="100"
   id="svg3314"
   version="1.1"
   inkscape:version="0.48.4 r9939"
   sodipodi:docname="icon05_car.svg">
  <defs
     id="defs3316" />
  <sodipodi:namedview
     id="base"
     pagecolor="#ffffff"
     bordercolor="#666666"
     borderopacity="1.0"
     inkscape:pageopacity="0.0"
     inkscape:pageshadow="2"
     inkscape:zoom="3.959798"
     inkscape:cx="31.715674"
     inkscape:cy="43.258671"
     inkscape:document-units="px"
     inkscape:current-layer="layer1"
     showgrid="false"
     inkscape:window-width="1307"
     inkscape:window-height="744"
     inkscape:window-x="59"
     inkscape:window-y="24"
     inkscape:window-maximized="1" />
  <metadata
     id="metadata3319">
    <rdf:RDF>
      <cc:Work
         rdf:about="">
        <dc:format>image/svg+xml</dc:format>
        <dc:type
           rdf:resource="http://purl.org/dc/dcmitype/StillImage" />
        <dc:title></dc:title>
      </cc:Work>
    </rdf:RDF>
  </metadata>
  <g
     inkscape:label="Layer 1"
     inkscape:groupmode="layer"
     id="layer1">
    <g
       id="g3107">
      <g
         id="g136"
         transform="matrix(1.25,0,0,-1.25,67.873,59.935245)">
        <path
           d="M 0,0 -31.114,0"
           style="fill:none;stroke:#000000;stroke-width:2;stroke-linecap:round;stroke-linejoin:round;stroke-miterlimit:10;stroke-opacity:1;stroke-dasharray:none"
           id="path138"
           inkscape:connector-curvature="0" />
      </g>
      <g
         id="g140"
         transform="matrix(1.25,0,0,-1.25,18.4675,59.935245)">
        <path
           d="M 0,0 -1.123,0 -5.727,1.062 C -6.335,1.204 -6.774,1.751 -6.774,2.38 l 0,6.078 c 0,0.521 0.303,0.994 0.777,1.224 1.825,0.865 6.774,2.853 13.928,2.995 2.616,2.015 5.523,3.577 8.606,4.625 3.083,1.054 6.342,1.602 9.642,1.602 3.921,0 7.829,-0.358 11.669,-1.075 3.84,-0.71 7.62,-1.771 11.284,-3.178 L 50.274,14.212 56.056,13.651 57.226,1.61 49.295,0 47.936,0"
           style="fill:none;stroke:#000000;stroke-width:2;stroke-linecap:round;stroke-linejoin:round;stroke-miterlimit:10;stroke-opacity:1;stroke-dasharray:none"
           id="path142"
           inkscape:connector-curvature="0" />
      </g>
      <g
         id="g144"
         transform="matrix(1.25,0,0,-1.25,78.683625,58.137245)">
        <path
           d="m 0,0 c 0,-2.456 -1.991,-4.446 -4.446,-4.446 -2.455,0 -4.447,1.99 -4.447,4.446 0,2.456 1.992,4.446 4.447,4.446 C -1.991,4.446 0,2.456 0,0 z"
           style="fill:none;stroke:#000000;stroke-width:2;stroke-linecap:round;stroke-linejoin:round;stroke-miterlimit:10;stroke-opacity:1;stroke-dasharray:none"
           id="path146"
           inkscape:connector-curvature="0" />
      </g>
      <g
         id="g148"
         transform="matrix(1.25,0,0,-1.25,29.276875,58.137245)">
        <path
           d="m 0,0 c 0,-2.456 -1.99,-4.446 -4.445,-4.446 -2.456,0 -4.447,1.99 -4.447,4.446 0,2.456 1.991,4.446 4.447,4.446 C -1.99,4.446 0,2.456 0,0 z"
           style="fill:none;stroke:#000000;stroke-width:2;stroke-linecap:round;stroke-linejoin:round;stroke-miterlimit:10;stroke-opacity:1;stroke-dasharray:none"
           id="path150"
           inkscape:connector-curvature="0" />
      </g>
      <g
         id="g152"
         transform="matrix(1.25,0,0,-1.25,28.380875,44.088745)">
        <path
           d="m 0,0 c 0,0 8.803,-5.089 23.995,-3.914 0.089,0.007 0.177,0.014 0.265,0.021 6.269,0.502 12.351,2.343 17.889,5.323 C 40.626727,1.8306886 16.800827,12.858723 0.52368492,0.12078645"
           style="fill:none;stroke:#000000;stroke-width:2;stroke-linecap:round;stroke-linejoin:round;stroke-miterlimit:10;stroke-opacity:1;stroke-dasharray:none"
           id="path154"
           inkscape:connector-curvature="0"
           sodipodi:nodetypes="ccccc" />
      </g>
      <g
         id="g156"
         transform="matrix(1.25,0,0,-1.25,54.84575,36.305495)">
        <path
           d="M 0,0 -0.713,-10.307"
           style="fill:none;stroke:#000000;stroke-width:2;stroke-linecap:round;stroke-linejoin:round;stroke-miterlimit:10;stroke-opacity:1;stroke-dasharray:none"
           id="path158"
           inkscape:connector-curvature="0" />
      </g>
      <g
         id="g160"
         transform="matrix(1.25,0,0,-1.25,49.99825,54.687495)">
        <path
           d="M 0,0 6.08,0"
           style="fill:none;stroke:#000000;stroke-width:2;stroke-linecap:round;stroke-linejoin:round;stroke-miterlimit:10;stroke-opacity:1;stroke-dasharray:none"
           id="path162"
           inkscape:connector-curvature="0" />
      </g>
    </g>
  </g>
</svg>
