<?xml version="1.0" encoding="UTF-8" standalone="no"?>
<!-- Created with Inkscape (http://www.inkscape.org/) -->

<svg
   xmlns:dc="http://purl.org/dc/elements/1.1/"
   xmlns:cc="http://creativecommons.org/ns#"
   xmlns:rdf="http://www.w3.org/1999/02/22-rdf-syntax-ns#"
   xmlns:svg="http://www.w3.org/2000/svg"
   xmlns="http://www.w3.org/2000/svg"
   xmlns:sodipodi="http://sodipodi.sourceforge.net/DTD/sodipodi-0.dtd"
   xmlns:inkscape="http://www.inkscape.org/namespaces/inkscape"
   width="100"
   height="100"
   id="svg3314"
   version="1.1"
   inkscape:version="0.48.4 r9939"
   sodipodi:docname="single-icon-base.svg">
  <defs
     id="defs3316" />
  <sodipodi:namedview
     id="base"
     pagecolor="#ffffff"
     bordercolor="#666666"
     borderopacity="1.0"
     inkscape:pageopacity="0.0"
     inkscape:pageshadow="2"
     inkscape:zoom="5.6"
     inkscape:cx="52.40567"
     inkscape:cy="54.211329"
     inkscape:document-units="px"
     inkscape:current-layer="layer1"
     showgrid="false"
     inkscape:window-width="1307"
     inkscape:window-height="744"
     inkscape:window-x="59"
     inkscape:window-y="24"
     inkscape:window-maximized="1" />
  <metadata
     id="metadata3319">
    <rdf:RDF>
      <cc:Work
         rdf:about="">
        <dc:format>image/svg+xml</dc:format>
        <dc:type
           rdf:resource="http://purl.org/dc/dcmitype/StillImage" />
        <dc:title></dc:title>
      </cc:Work>
    </rdf:RDF>
  </metadata>
  <g
     inkscape:label="Layer 1"
     inkscape:groupmode="layer"
     id="layer1">
    <g
       transform="matrix(1.25,0,0,-1.25,57.52588,77.853755)"
       id="g470"
       style="fill:#000080">
      <path
         inkscape:connector-curvature="0"
         id="path472"
         style="fill:#000080;stroke:#000000;stroke-width:2;stroke-linecap:round;stroke-linejoin:round;stroke-miterlimit:10;stroke-opacity:1;stroke-dasharray:none"
         d="M -2.8571428,4.4285714 3.993,-6.55 l -4.576,1.663 -0.617,-4.83 -4.841,7.94"
         sodipodi:nodetypes="ccccc" />
    </g>
    <g
       transform="matrix(1.25,0,0,-1.25,42.42338,77.853755)"
       id="g474"
       style="fill:#008080">
      <path
         inkscape:connector-curvature="0"
         id="path476"
         style="fill:#008080;stroke:#000000;stroke-width:2;stroke-linecap:round;stroke-linejoin:round;stroke-miterlimit:10;stroke-opacity:1;stroke-dasharray:none"
         d="M 3.1428571,4.8571428 -3.994,-6.55 l 4.577,1.663 0.617,-4.83 4.841,7.94"
         sodipodi:nodetypes="ccccc" />
    </g>
    <g
       transform="matrix(1.25,0,0,-1.25,34.230005,64.312505)"
       id="g458"
       style="fill:#e6e6e6">
      <path
         inkscape:connector-curvature="0"
         id="path460"
         style="fill:#e6e6e6;stroke:#000000;stroke-width:2;stroke-linecap:round;stroke-linejoin:round;stroke-miterlimit:10;stroke-opacity:1;stroke-dasharray:none"
         d="m 0,0 -19.384,0 0,43.45 64,0 0,-43.45 -19.384,0" />
    </g>
    <g
       transform="matrix(1.25,0,0,-1.25,65.76988,64.290505)"
       id="g462"
       style="fill:#aa8800">
      <path
         inkscape:connector-curvature="0"
         id="path464"
         style="fill:#aa8800;stroke:#000000;stroke-width:2;stroke-linecap:round;stroke-linejoin:round;stroke-miterlimit:10;stroke-opacity:1;stroke-dasharray:none"
         d="m 0,0 -2.643,-2.673 0.954,-3.637 -3.628,-0.989 -0.99,-3.628 -3.636,0.954 -2.673,-2.642 -2.674,2.642 -3.636,-0.954 -0.989,3.628 -3.628,0.989 0.954,3.637 -2.643,2.673 2.643,2.674 -0.954,3.637 3.628,0.989 0.989,3.628 3.637,-0.954 2.673,2.642 2.673,-2.642 3.637,0.953 L -5.317,7.299 -1.689,6.31 -2.643,2.674 0,0 z" />
    </g>
    <g
       transform="matrix(1.25,0,0,-1.25,57.564255,64.290505)"
       id="g466"
       style="fill:#ffd42a">
      <path
         inkscape:connector-curvature="0"
         id="path468"
         style="fill:#ffd42a;stroke:#000000;stroke-width:2;stroke-linecap:round;stroke-linejoin:round;stroke-miterlimit:10;stroke-opacity:1;stroke-dasharray:none"
         d="m 0,0 c 0,-3.342 -2.709,-6.051 -6.052,-6.051 -3.342,0 -6.051,2.709 -6.051,6.051 0,3.343 2.709,6.052 6.051,6.052 C -2.709,6.052 0,3.343 0,0 z" />
    </g>
    <g
       transform="matrix(1.25,0,0,-1.25,26.24963,16.666005)"
       id="g478">
      <path
         inkscape:connector-curvature="0"
         id="path480"
         style="fill:none;stroke:#000000;stroke-width:2;stroke-linecap:round;stroke-linejoin:round;stroke-miterlimit:10;stroke-opacity:1;stroke-dasharray:none"
         d="M 0,0 38,0" />
    </g>
    <g
       transform="matrix(1.25,0,0,-1.25,20.303005,26.978505)"
       id="g482">
      <path
         inkscape:connector-curvature="0"
         id="path484"
         style="fill:none;stroke:#000000;stroke-width:2;stroke-linecap:round;stroke-linejoin:round;stroke-miterlimit:10;stroke-opacity:1;stroke-dasharray:none"
         d="M 0,0 47.515,0" />
    </g>
    <g
       transform="matrix(1.25,0,0,-1.25,20.303005,40.33788)"
       id="g486">
      <path
         inkscape:connector-curvature="0"
         id="path488"
         style="fill:none;stroke:#000000;stroke-width:2;stroke-linecap:round;stroke-linejoin:round;stroke-miterlimit:10;stroke-opacity:1;stroke-dasharray:none"
         d="M 0,0 47.515,0" />
    </g>
    <g
       transform="matrix(1.25,0,0,-1.25,79.69688,53.70338)"
       id="g490">
      <path
         inkscape:connector-curvature="0"
         id="path492"
         style="fill:none;stroke:#000000;stroke-width:2;stroke-linecap:round;stroke-linejoin:round;stroke-miterlimit:10;stroke-opacity:1;stroke-dasharray:none"
         d="M 0,0 -16.78,0" />
    </g>
    <g
       transform="matrix(1.25,0,0,-1.25,41.27163,53.70338)"
       id="g494">
      <path
         inkscape:connector-curvature="0"
         id="path496"
         style="fill:none;stroke:#000000;stroke-width:2;stroke-linecap:round;stroke-linejoin:round;stroke-miterlimit:10;stroke-opacity:1;stroke-dasharray:none"
         d="M 0,0 -16.78,0" />
    </g>
  </g>
</svg>
