<?xml version="1.0" encoding="UTF-8" standalone="no"?>
<!-- Created with Inkscape (http://www.inkscape.org/) -->

<svg
   xmlns:dc="http://purl.org/dc/elements/1.1/"
   xmlns:cc="http://creativecommons.org/ns#"
   xmlns:rdf="http://www.w3.org/1999/02/22-rdf-syntax-ns#"
   xmlns:svg="http://www.w3.org/2000/svg"
   xmlns="http://www.w3.org/2000/svg"
   xmlns:sodipodi="http://sodipodi.sourceforge.net/DTD/sodipodi-0.dtd"
   xmlns:inkscape="http://www.inkscape.org/namespaces/inkscape"
   width="100"
   height="100"
   id="svg3314"
   version="1.1"
   inkscape:version="0.48.4 r9939"
   sodipodi:docname="icon09_gear.svg">
  <defs
     id="defs3316" />
  <sodipodi:namedview
     id="base"
     pagecolor="#ffffff"
     bordercolor="#666666"
     borderopacity="1.0"
     inkscape:pageopacity="0.0"
     inkscape:pageshadow="2"
     inkscape:zoom="3.959798"
     inkscape:cx="37.577829"
     inkscape:cy="48.438827"
     inkscape:document-units="px"
     inkscape:current-layer="layer1"
     showgrid="false"
     inkscape:window-width="1307"
     inkscape:window-height="744"
     inkscape:window-x="59"
     inkscape:window-y="24"
     inkscape:window-maximized="1" />
  <metadata
     id="metadata3319">
    <rdf:RDF>
      <cc:Work
         rdf:about="">
        <dc:format>image/svg+xml</dc:format>
        <dc:type
           rdf:resource="http://purl.org/dc/dcmitype/StillImage" />
        <dc:title />
      </cc:Work>
    </rdf:RDF>
  </metadata>
  <g
     inkscape:label="Layer 1"
     inkscape:groupmode="layer"
     id="layer1">
    <g
       transform="matrix(1.25,0,0,-1.25,71.176745,50.000505)"
       id="g220" />
    <g
       transform="matrix(1.25,0,0,-1.25,89.999995,55.647505)"
       id="g224">
      <path
         id="path226"
         style="fill:none;stroke:#000000;stroke-width:2;stroke-linecap:round;stroke-linejoin:round;stroke-miterlimit:10;stroke-opacity:1;stroke-dasharray:none"
         d="m 0,0 0,9.035 -7.967,0.996 c -0.624,2.727 -1.696,5.281 -3.14,7.581 l 4.929,6.339 -6.388,6.388 -6.339,-4.93 c -2.3,1.445 -4.854,2.518 -7.581,3.141 l -0.996,7.968 -9.035,0 -0.996,-7.968 c -2.727,-0.623 -5.281,-1.696 -7.581,-3.141 l -6.339,4.93 -6.388,-6.388 4.93,-6.339 c -1.444,-2.3 -2.518,-4.854 -3.141,-7.581 L -64,9.035 -64,0 l 7.968,-0.996 c 0.623,-2.727 1.697,-5.281 3.141,-7.581 l -4.93,-6.339 6.388,-6.388 6.339,4.93 c 2.3,-1.444 4.854,-2.518 7.581,-3.141 l 0.996,-7.967 9.035,0 0.996,7.967 c 2.727,0.623 5.281,1.697 7.581,3.141 l 6.339,-4.93 6.388,6.388 -4.929,6.339 c 1.444,2.3 2.516,4.854 3.14,7.581 L 0,0 z m -15.0586,4.5176 c 0,-9.356 -7.584,-16.941 -16.941,-16.941 -9.356,0 -16.941,7.585 -16.941,16.941 0,9.356 7.585,16.941 16.941,16.941 9.357,0 16.941,-7.585 16.941,-16.941 z" />
    </g>
  </g>
</svg>
