<?xml version="1.0" encoding="UTF-8" standalone="no"?>
<!-- Created with Inkscape (http://www.inkscape.org/) -->

<svg
   xmlns:dc="http://purl.org/dc/elements/1.1/"
   xmlns:cc="http://creativecommons.org/ns#"
   xmlns:rdf="http://www.w3.org/1999/02/22-rdf-syntax-ns#"
   xmlns:svg="http://www.w3.org/2000/svg"
   xmlns="http://www.w3.org/2000/svg"
   xmlns:sodipodi="http://sodipodi.sourceforge.net/DTD/sodipodi-0.dtd"
   xmlns:inkscape="http://www.inkscape.org/namespaces/inkscape"
   width="100"
   height="100"
   id="svg3314"
   version="1.1"
   inkscape:version="0.48.4 r9939"
   sodipodi:docname="icon02_moon.svg">
  <defs
     id="defs3316">
    <mask
       maskUnits="userSpaceOnUse"
       id="mask3436">
      <path
         d="m 0,0 c -18.691,0 -33.843,15.152 -33.843,33.842 0,5.529 1.335,10.743 3.685,15.352 -10.972,-5.597 -18.491,-16.995 -18.491,-30.157 0,-18.691 15.152,-33.843 33.843,-33.843 13.162,0 24.56,7.519 30.157,18.491 C 10.742,1.334 5.528,0 0,0 z"
         style="fill:#ffffff;stroke:#000000;stroke-width:2;stroke-linecap:round;stroke-linejoin:round;stroke-miterlimit:10;stroke-opacity:1;stroke-dasharray:none"
         id="path3438"
         inkscape:connector-curvature="0" />
    </mask>
  </defs>
  <sodipodi:namedview
     id="base"
     pagecolor="#ffffff"
     bordercolor="#666666"
     borderopacity="1.0"
     inkscape:pageopacity="0.0"
     inkscape:pageshadow="2"
     inkscape:zoom="3.959798"
     inkscape:cx="31.715674"
     inkscape:cy="43.258671"
     inkscape:document-units="px"
     inkscape:current-layer="layer1"
     showgrid="false"
     inkscape:window-width="1307"
     inkscape:window-height="744"
     inkscape:window-x="59"
     inkscape:window-y="24"
     inkscape:window-maximized="1" />
  <metadata
     id="metadata3319">
    <rdf:RDF>
      <cc:Work
         rdf:about="">
        <dc:format>image/svg+xml</dc:format>
        <dc:type
           rdf:resource="http://purl.org/dc/dcmitype/StillImage" />
        <dc:title></dc:title>
      </cc:Work>
    </rdf:RDF>
  </metadata>
  <g
     inkscape:label="Layer 1"
     inkscape:groupmode="layer"
     id="layer1">
    <g
       id="g3893">
      <g
         id="g398"
         transform="matrix(1.25,0,0,-1.25,50,10)">
        <path
           d="m 0,0 c 0,0 9.237,-10.092 22.455,-10.092 l 0,-28.426 C 22.455,-58.993 0,-64 0,-64 c 0,0 -22.455,5.007 -22.455,25.482 l 0,28.426 C -9.237,-10.092 0,0 0,0 z"
           style="fill:none;stroke:#000000;stroke-width:2;stroke-linecap:round;stroke-linejoin:round;stroke-miterlimit:10;stroke-opacity:1;stroke-dasharray:none"
           id="path400"
           inkscape:connector-curvature="0" />
      </g>
      <g
         id="g402"
         transform="matrix(1.25,0,0,-1.25,50,16.845125)">
        <path
           d="m 0,0 c -3.551,-2.923 -10.061,-7.265 -18.418,-8.383 l 0,-18.792 18.418,0 L 0,0 z"
           style="fill:none;stroke:#000000;stroke-width:2;stroke-linecap:round;stroke-linejoin:round;stroke-miterlimit:10;stroke-opacity:1;stroke-dasharray:none"
           id="path404"
           inkscape:connector-curvature="0" />
      </g>
      <g
         id="g406"
         transform="matrix(1.25,0,0,-1.25,50,50.813625)">
        <path
           d="m 0,0 0,-27.172 c 3.775,1.11 18.417,6.385 18.417,21.305 L 18.417,0 0,0 z"
           style="fill:none;stroke:#000000;stroke-width:2;stroke-linecap:round;stroke-linejoin:round;stroke-miterlimit:10;stroke-opacity:1;stroke-dasharray:none"
           id="path408"
           inkscape:connector-curvature="0" />
      </g>
    </g>
  </g>
</svg>
