<?xml version="1.0" encoding="UTF-8" standalone="no"?>
<!-- Created with Inkscape (http://www.inkscape.org/) -->

<svg
   xmlns:dc="http://purl.org/dc/elements/1.1/"
   xmlns:cc="http://creativecommons.org/ns#"
   xmlns:rdf="http://www.w3.org/1999/02/22-rdf-syntax-ns#"
   xmlns:svg="http://www.w3.org/2000/svg"
   xmlns="http://www.w3.org/2000/svg"
   xmlns:sodipodi="http://sodipodi.sourceforge.net/DTD/sodipodi-0.dtd"
   xmlns:inkscape="http://www.inkscape.org/namespaces/inkscape"
   width="100"
   height="100"
   id="svg3314"
   version="1.1"
   inkscape:version="0.48.4 r9939"
   sodipodi:docname="icon15_bird.svg">
  <defs
     id="defs3316" />
  <sodipodi:namedview
     id="base"
     pagecolor="#ffffff"
     bordercolor="#666666"
     borderopacity="1.0"
     inkscape:pageopacity="0.0"
     inkscape:pageshadow="2"
     inkscape:zoom="5.6"
     inkscape:cx="50.770812"
     inkscape:cy="49.734918"
     inkscape:document-units="px"
     inkscape:current-layer="layer1"
     showgrid="false"
     inkscape:window-width="1307"
     inkscape:window-height="744"
     inkscape:window-x="59"
     inkscape:window-y="24"
     inkscape:window-maximized="1" />
  <metadata
     id="metadata3319">
    <rdf:RDF>
      <cc:Work
         rdf:about="">
        <dc:format>image/svg+xml</dc:format>
        <dc:type
           rdf:resource="http://purl.org/dc/dcmitype/StillImage" />
        <dc:title></dc:title>
      </cc:Work>
    </rdf:RDF>
  </metadata>
  <g
     inkscape:label="Layer 1"
     inkscape:groupmode="layer"
     id="layer1">
    <g
       transform="matrix(1.25,0,0,-1.25,24.83161,74.59187)"
       id="g308" />
    <g
       transform="matrix(1.25,0,0,-1.25,57.09111,81.00362)"
       id="g312" />
    <g
       transform="matrix(1.25,0,0,-1.25,58.26186,87.44462)"
       id="g316" />
    <g
       transform="matrix(1.25,0,0,-1.25,67.398735,74.758495)"
       id="g320" />
    <g
       transform="matrix(1.25,0,0,-1.25,73.30336,74.758495)"
       id="g324" />
    <g
       transform="matrix(1.25,0,0,-1.25,76.506485,47.64787)"
       id="g328" />
    <g
       transform="matrix(1.25,0,0,-1.25,59.28961,67.761995)"
       id="g332" />
    <g
       transform="matrix(1.25,0,0,-1.25,58.41561,44.907995)"
       id="g336">
      <path
         id="path338"
         style="fill:#808000;stroke:#000000;stroke-width:2;stroke-linecap:round;stroke-linejoin:round;stroke-miterlimit:10;stroke-opacity:1;stroke-dasharray:none"
         d="m 0,0 0.841,5.345 c 0.841,5.344 -11.89,8.647 -11.89,8.647 0.54,-1.021 1.861,-3.603 1.861,-3.603 -5.404,0.84 -13.451,7.086 -13.451,7.086 0.264,-1.989 1.927,-4.483 1.927,-4.483 -6.486,0.721 -18.02,9.598 -18.02,9.598 0,0 8.167,-12.349 14.412,-15.832 -6.451,0.773 -12.216,5.308 -12.216,5.308 0,0 3.366,-11.261 16.329,-14.258 0,0 -5.303,-1.088 -10.354,0.399 0,0 6.811,-4.628 12.286,-5.359 0,0 -3.122,-1.916 -5.525,-1.035 0,0 4.492,-4.244 14.177,-3.523 0,0 -15.458,-8.808 -24.426,-10.089 l 4.099,-2.897 7.286,2.242 m 23.3632,4.1708 c 0,0 3.204,-7.039 6.487,-5.597 3.284,1.441 -0.16,8.167 1.041,10.168 0,0 5.783,-1.949 8.167,3.653 0,0 1.078,1.18 2.763,1.198 2.217,0.023 5.023,-2.28 5.023,-2.851 0,0 2.411,5.735 0.051,8.302 -4.956,5.389 -9.759,1.218 -9.759,1.218 0,0 -9.488,-1.651 -14.472,2.192 m 14.4725,-2.1917 c -1.321,7.526 3.123,5.855 5.72,11.02 2.595,5.164 -1.516,9.728 -2.837,17.054 0,0 -3.013,-8.447 -2.428,-11.73 0,0 -4.244,3.299 -4.244,4.901 0,0 -1.016,-7.479 0.505,-10.522 0,0 -3.366,3.283 -4.461,5.471 0,0 -0.505,-7.154 1.347,-10.185 0,0 -2.862,-0.421 -3.956,1.684 0,0 -0.709,-5.023 1.297,-7.684 m 6.4945,-21.6975 -2.962,-1.241 -0.881,-2.923 m -0.8807,4.164 3.523,-2.482 m -10.8325,-7.6669 0.868,3.564 3.542,1.22 m -5.3466,0.3688 4.148,-3.651 m -29.9556,8.7804 1.936,-3.761 c 0,0 12.821,10.273 18.586,10.914 0,0 -0.72,-11.85 4.244,-12.651 0,0 2.562,0.32 2.482,3.123 -0.08,2.802 -0.08,12.09 2.402,12.891" />
    </g>
    <path
       style="fill:none;stroke:#000000;stroke-width:1px;stroke-linecap:butt;stroke-linejoin:miter;stroke-opacity:1"
       d="M 55.178571,43.214286 C 42.142857,59.285715 44.821428,59.642857 44.821428,59.642857 c 0,0 -14.464285,7.857143 -14.642857,11.071429 C 30,73.928572 30.357143,75.535714 37.5,71.071429 44.642857,66.607143 59.821428,65.357143 60,63.035715 c 0.178571,-2.321429 0.892857,-16.25 -0.178572,-17.5 -1.071428,-1.25 -4.642857,-2.321429 -4.642857,-2.321429 z"
       id="path4623"
       inkscape:connector-curvature="0" />
  </g>
</svg>
