<?xml version="1.0" encoding="UTF-8" standalone="no"?>
<!-- Created with Inkscape (http://www.inkscape.org/) -->

<svg
   xmlns:dc="http://purl.org/dc/elements/1.1/"
   xmlns:cc="http://creativecommons.org/ns#"
   xmlns:rdf="http://www.w3.org/1999/02/22-rdf-syntax-ns#"
   xmlns:svg="http://www.w3.org/2000/svg"
   xmlns="http://www.w3.org/2000/svg"
   xmlns:sodipodi="http://sodipodi.sourceforge.net/DTD/sodipodi-0.dtd"
   xmlns:inkscape="http://www.inkscape.org/namespaces/inkscape"
   width="744.09448819"
   height="1052.3622047"
   id="svg2"
   version="1.1"
   inkscape:version="0.48.4 r9939"
   sodipodi:docname="svg_alphabet_roboto_slab.svg">
  <defs
     id="defs4" />
  <sodipodi:namedview
     id="base"
     pagecolor="#ffffff"
     bordercolor="#666666"
     borderopacity="1.0"
     inkscape:pageopacity="0.0"
     inkscape:pageshadow="2"
     inkscape:zoom="0.49497475"
     inkscape:cx="217.8743"
     inkscape:cy="541.86661"
     inkscape:document-units="px"
     inkscape:current-layer="layer1"
     showgrid="false"
     inkscape:window-width="1307"
     inkscape:window-height="744"
     inkscape:window-x="59"
     inkscape:window-y="24"
     inkscape:window-maximized="1"
     inkscape:snap-center="false" />
  <metadata
     id="metadata7">
    <rdf:RDF>
      <cc:Work
         rdf:about="">
        <dc:format>image/svg+xml</dc:format>
        <dc:type
           rdf:resource="http://purl.org/dc/dcmitype/StillImage" />
      </cc:Work>
    </rdf:RDF>
  </metadata>
  <g
     inkscape:label="Layer 1"
     inkscape:groupmode="layer"
     id="layer1">
    <g
       id="g4495"
       transform="translate(0,-1.9018555e-6)">
      <g
         style="fill:#000000;fill-opacity:1"
         transform="translate(74.803674,870.15972)"
         inkscape:label="Layer 1"
         id="layer1-4">
        <path
           style="fill:#000000;fill-opacity:1;stroke:#000000;stroke-width:0.00890004px;stroke-linecap:butt;stroke-linejoin:miter;stroke-opacity:1"
           d="m 72.521244,66.312239 13.792487,0 0,10.56738 -13.792487,0 0,12.488721 11.18495,1.921414 0,8.646036 -35.819302,0 0,-8.646036 11.184953,-1.921414 0,-12.488721 -44.877061,0 0,-7.616701 44.053627,-69.23696741 14.272833,0 0,66.28628841 z m -43.916394,0 30.466995,0 0,-47.004208 -0.411713,-0.13726 -1.372391,3.63683 z"
           id="4-7"
           inkscape:connector-curvature="0" />
      </g>
      <g
         style="fill:#000000;fill-opacity:1"
         transform="translate(176.5287,870.14059)"
         inkscape:label="Layer 1"
         id="layer1-1">
        <path
           style="fill:#000000;fill-opacity:1;stroke:#000000;stroke-width:0.00878066px;stroke-linecap:butt;stroke-linejoin:miter;stroke-opacity:1"
           d="m 68.928465,19.50165 -1.28627,-7.65 h -29.44901 l -3.18185,27.6889 q 3.04645,-2.3018 6.87144,-3.825 3.82498,-1.5232 8.8347,-1.6586 13.60747,-0.1354 21.42669,8.8685 7.81922,9.004 7.81922,24.2362 0,14.8261 -7.95462,23.83 -7.95461,9.004 -23.18686,9.004 -12.52429,0 -20.8174,-6.8376 -8.293109,-6.8376 -7.954615,-20.1066 l 0.135398,-0.4062 h 12.050397 q 0,7.9885 4.63737,12.4566 4.63737,4.4681 11.94885,4.4681 8.46236,0 13.13358,-5.9575 4.67122,-5.9575 4.67122,-16.3154 0,-9.5455 -4.70507,-15.6046 -4.70507,-6.059 -13.03203,-6.059 -7.85307,0 -11.40726,2.3694 -3.55419,2.3695 -5.17896,7.2438 l -11.102614,-1.1509 5.686704,-54.0914 h 52.06043 v 19.4973 h -10.01944 z"
           id="5"
           inkscape:connector-curvature="0" />
      </g>
      <g
         style="fill:#000000;fill-opacity:1"
         transform="translate(273.51268,870.14059)"
         inkscape:label="Layer 1"
         id="layer1-6">
        <path
           style="fill:#000000;fill-opacity:1;stroke:#000000;stroke-width:0.00865757px;stroke-linecap:butt;stroke-linejoin:miter;stroke-opacity:1"
           d="m 54.67249,0.00435 q 4.93949,0 9.84561,1.1347 4.90612,1.1348 8.11011,2.8703 l -2.53649,9.8122 q -3.13725,-1.5352 -6.87524,-2.5031 -3.738,-0.9679 -8.54399,-0.9679 -10.21273,0 -16.2536,7.7096 -6.04086,7.7096 -6.44136,23.2624 l 0.267,0.267 q 3.73799,-3.471 9.14473,-5.5069 5.40674,-2.0359 11.68123,-2.0359 13.01623,0 20.75922,9.0113 7.74299,9.0112 7.74299,22.8284 0,15.0855 -8.24361,24.5974 -8.24362,9.5118 -21.99409,9.5118 -14.21773,0 -23.56272,-10.3462 -9.34498,-10.3462 -9.34498,-29.3032 v -13.083 q 0,-23.0955 10.14598,-35.1772 10.14599,-12.0817 26.09921,-12.0817 z m -4.47224,43.8547 q -6.74174,0 -11.48098,2.7033 -4.73925,2.7034 -7.20899,7.2424 v 7.8097 q 0,13.5503 5.64036,20.826 5.64037,7.2757 14.18436,7.2757 8.07673,0 12.58235,-6.8418 4.50562,-6.8419 4.50562,-16.9879 0,-9.612 -4.83937,-15.8197 -4.83937,-6.2077 -13.38335,-6.2077 z"
           id="6"
           inkscape:connector-curvature="0" />
      </g>
      <g
         style="fill:#000000;fill-opacity:1"
         transform="translate(374.32147,870.14059)"
         inkscape:label="Layer 1"
         id="layer1-0">
        <path
           style="fill:#000000;fill-opacity:1;stroke:#000000;stroke-width:0.00890729px;stroke-linecap:butt;stroke-linejoin:miter;stroke-opacity:1"
           d="m 83.788198,10.64915 q -18.13025,21.564 -24.48271,38.2177 -6.35245,16.6537 -9.168139,40.3467 l -1.0988,10.782 H 35.509533 l 1.098804,-10.782 q 2.884358,-23.6243 11.194062,-42.2353 8.30969,-18.6109 22.73149,-36.3291 H 28.779364 l -1.030129,11.4687 H 16.211802 V 0.00445 h 67.576396 v 10.6447 z"
           id="7"
           inkscape:connector-curvature="0" />
      </g>
      <g
         style="fill:#000000;fill-opacity:1"
         transform="translate(475.16364,870.14059)"
         inkscape:label="Layer 1"
         id="layer1-8">
        <path
           style="fill:#000000;fill-opacity:1;stroke:#000000;stroke-width:0.00865757px;stroke-linecap:butt;stroke-linejoin:miter;stroke-opacity:1"
           d="m 78.936076,26.77105 q 0,7.6095 -4.27199,13.3166 -4.27199,5.7071 -11.54773,8.5106 8.41048,2.937 13.4501,9.2115 5.03962,6.2745 5.03962,14.4847 0,13.4835 -8.77761,20.5924 -8.77761,7.1088 -22.79509,7.1088 -14.28448,0 -22.96197,-7.1088 -8.677482,-7.1089 -8.677482,-20.5924 0,-8.2102 4.939492,-14.4847 4.93949,-6.2745 13.34998,-9.2115 -7.27574,-2.8035 -11.414233,-8.5106 -4.138493,-5.7071 -4.138493,-13.3166 0,-12.816 7.909866,-19.7914 7.90986,-6.9753 20.85934,-6.9753 12.81598,0 20.92609,6.9753 8.11011,6.9754 8.11011,19.7914 z m -10.41298,45.2564 q 0,-8.01 -5.27324,-13.1497 -5.27324,-5.1398 -13.34998,-5.1398 -8.14349,0 -13.24986,5.1064 -5.10636,5.1064 -5.10636,13.1831 0,8.277 5.03961,12.9829 5.03962,4.7058 13.45011,4.7058 8.21024,0 13.34998,-4.7392 5.13974,-4.7392 5.13974,-12.9495 z m -2.73675,-44.9894 q 0,-7.209 -4.50561,-11.9482 -4.50562,-4.7393 -11.38086,-4.7393 -7.00874,0 -11.31411,4.5724 -4.30537,4.5723 -4.30537,12.1151 0,7.4092 4.33875,11.8815 4.33874,4.4722 11.41423,4.4722 6.94199,0 11.34748,-4.4722 4.40549,-4.4723 4.40549,-11.8815 z"
           id="8"
           inkscape:connector-curvature="0" />
      </g>
      <g
         style="fill:#000000;fill-opacity:1"
         transform="translate(573.65682,870.14059)"
         inkscape:label="Layer 1"
         id="layer1-62">
        <path
           style="fill:#000000;fill-opacity:1;stroke:#000000;stroke-width:0.00865757px;stroke-linecap:butt;stroke-linejoin:miter;stroke-opacity:1"
           d="m 47.063001,89.71615 q 9.47849,0 14.98535,-7.2423 5.50687,-7.2424 5.70712,-23.3291 l -0.267,-0.3338 q -2.66999,4.4723 -7.47599,6.8753 -4.80599,2.403 -10.81348,2.403 -14.21773,0 -22.427965,-8.7776 -8.210237,-8.7777 -8.210237,-24.6641 0,-15.219 8.777611,-24.9311 8.777611,-9.7121 21.326591,-9.7121 15.21898,0 23.99659,9.5118 8.77761,9.5119 8.77761,28.1351 v 17.5552 q 0,22.7618 -9.37836,33.7755 -9.37836,11.0137 -24.99784,11.0137 -5.07299,0 -10.37961,-0.9679 -5.306612,-0.9678 -9.511856,-2.9703 l 2.002497,-9.9458 q 4.071744,1.9358 8.310359,2.7702 4.23862,0.8343 9.57861,0.8343 z m 2.136,-31.9732 q 7.27574,0 12.11511,-3.1372 4.83936,-3.1373 6.97536,-8.01 v -10.2795 q 0,-12.8827 -4.90612,-19.4242 -4.90611,-6.5415 -14.31785,-6.5415 -7.27574,0 -12.31536,6.8085 -5.039613,6.8085 -5.039613,17.4885 0,10.4797 4.672493,16.7876 4.67249,6.3078 12.81598,6.3078 z"
           id="9"
           inkscape:connector-curvature="0" />
      </g>
    </g>
    <g
       id="g4423"
       transform="translate(0,5.0640625e-5)">
      <g
         style="fill:#000000;fill-opacity:1"
         transform="translate(101.95676,45.856106)"
         inkscape:label="Layer 1"
         id="layer1-84">
        <path
           style="fill:#000000;fill-opacity:1;stroke:#000000;stroke-width:0.00890729px;stroke-linecap:butt;stroke-linejoin:miter;stroke-opacity:1"
           d="M 2.1677215,91.34245 9.5846435,90.31235 44.54032,0.00445 h 11.606108 l 34.3376,90.3079 7.34825,1.0301 v 8.6531 h -28.70624 v -8.6531 l 7.55428,-1.3048 -6.59282,-18.405 H 30.049852 l -6.798844,18.405 7.554272,1.3048 v 8.6531 H 2.1677215 v -8.6531 z M 34.23904,60.30125 h 31.727938 l -15.52059,-42.922 h -0.41205 z"
           id="A"
           inkscape:connector-curvature="0" />
      </g>
      <g
         style="fill:#000000;fill-opacity:1"
         transform="translate(220.58042,45.856106)"
         inkscape:label="Layer 1"
         id="layer1-629">
        <path
           style="fill:#000000;fill-opacity:1;stroke:#000000;stroke-width:0.00890729px;stroke-linecap:butt;stroke-linejoin:miter;stroke-opacity:1"
           d="m 53.227733,0.00445 q 15.65795,0 24.48271,6.7645 8.82476,6.7645 8.82476,20.2935 0,6.6615 -4.22352,11.9152 -4.22353,5.2536 -11.15972,7.7946 8.996451,1.9229 14.21577,8.8591 5.21931,6.9362 5.21931,16.1387 0,13.735 -8.92778,20.9803 -8.92777,7.2452 -24.17367,7.2452 H 9.4129565 v -8.6531 L 20.607015,89.41955 V 10.64915 L 9.4129565,8.72625 V 0.00445 H 20.607015 53.227733 z m -19.091705,53.0859 v 36.3292 h 23.349565 q 9.271161,0 14.38746,-4.5669 5.1163,-4.5669 5.1163,-12.9453 0,-8.7904 -4.2922,-13.8037 -4.2922,-5.0133 -13.1513,-5.0133 H 34.136028 z m 0,-10.5759 h 22.594145 q 7.27957,-0.2061 11.77779,-4.3266 4.49823,-4.1205 4.49823,-11.4001 0,-8.1036 -5.08197,-12.1211 -5.08196,-4.0175 -14.69649,-4.0175 H 34.136028 v 31.8653 z"
           id="k_mansalva"
           inkscape:connector-curvature="0" />
      </g>
      <g
         style="fill:#000000;fill-opacity:1"
         transform="translate(329.05211,45.856106)"
         inkscape:label="Layer 1"
         id="layer1-31">
        <path
           style="fill:#000000;fill-opacity:1;stroke:#000000;stroke-width:0.00865757px;stroke-linecap:butt;stroke-linejoin:miter;stroke-opacity:1"
           d="m 87.680316,31.24325 h -9.27824 l -2.46974,-13.7504 q -3.204,-3.1373 -7.87649,-5.1398 -4.67249,-2.0025 -11.14723,-2.0025 -15.15223,0 -23.295716,10.9804 -8.143487,10.9803 -8.143487,27.8681 v 1.5352 q 0,16.8877 7.976613,27.9348 7.97661,11.0471 22.12759,11.0471 6.60824,0 12.01498,-2.0692 5.40674,-2.0693 8.34374,-5.073 l 2.46974,-13.7505 h 9.27824 v 17.2882 q -4.20524,5.4068 -12.61573,9.6454 -8.41049,4.2386 -19.49097,4.2386 -18.95697,0 -31.105451,-14.0175 -12.148481,-14.0174 -12.148481,-35.2439 v -1.4017 q 0,-21.36 11.948231,-35.3441 11.948231,-13.9841 31.305701,-13.9841 11.08048,0 19.49097,4.3053 8.41049,4.3054 12.61573,9.6454 v 17.2882 z"
           id="C"
           inkscape:connector-curvature="0" />
      </g>
      <g
         style="fill:#000000;fill-opacity:1"
         transform="translate(439.58406,45.856106)"
         inkscape:label="Layer 1"
         id="layer1-03">
        <path
           style="fill:#000000;fill-opacity:1;stroke:#000000;stroke-width:0.00890729px;stroke-linecap:butt;stroke-linejoin:miter;stroke-opacity:1"
           d="m 49.244578,0.00445 q 19.57243,0 31.48758,12.0525 11.915141,12.0525 11.915141,31.1442 v 13.6664 q 0,19.1604 -11.915141,31.1442 -11.91515,11.9838 -31.48758,11.9838 H 7.3527015 v -8.6531 L 18.546759,89.41955 V 10.64915 L 7.3527015,8.72625 V 0.00445 H 18.546759 49.244578 z m -17.168805,10.6447 v 78.7704 h 17.168805 q 13.87239,0 21.87305,-9.1338 8.000661,-9.1338 8.000661,-23.4182 v -13.8037 q 0,-14.1471 -8.000661,-23.2809 -8.00066,-9.1338 -21.87305,-9.1338 H 32.075773 z"
           id="D"
           inkscape:connector-curvature="0" />
      </g>
      <g
         style="fill:#000000;fill-opacity:1"
         transform="translate(551.20285,45.856106)"
         inkscape:label="Layer 1"
         id="layer1-93">
        <path
           style="fill:#000000;fill-opacity:1;stroke:#000000;stroke-width:0.00890729px;stroke-linecap:butt;stroke-linejoin:miter;stroke-opacity:1"
           d="m 11.232851,99.99555 v -8.6531 l 11.194058,-1.9229 V 10.64915 L 11.232851,8.72625 v -8.7218 h 76.778877 v 24.0363 h -11.60611 l -1.0988,-13.3916 H 35.955923 v 32.346 h 38.252085 v 10.6446 H 35.955923 v 35.7798 h 40.174995 l 1.098801,-13.3916 h 11.53743 v 23.9676 H 11.232851 z"
           id="E"
           inkscape:connector-curvature="0" />
      </g>
    </g>
    <g
       id="g4435"
       transform="translate(0,-2.0203881)">
      <g
         style="fill:#000000;fill-opacity:1"
         transform="translate(108.89606,185.25716)"
         inkscape:label="Layer 1"
         id="layer1-66">
        <path
           style="fill:#000000;fill-opacity:1;stroke:#000000;stroke-width:0.00890729px;stroke-linecap:butt;stroke-linejoin:miter;stroke-opacity:1"
           d="M 11.370202,91.34245 22.56426,89.41955 V 10.64915 L 11.370202,8.72625 v -8.7218 h 77.259596 v 24.0363 h -11.53743 l -1.0988,-13.3916 H 36.093273 v 34.4749 h 38.664135 v 10.6447 H 36.093273 v 33.6508 l 11.194055,1.9229 v 8.6531 H 11.370202 v -8.6531 z"
           id="F"
           inkscape:connector-curvature="0" />
      </g>
      <g
         style="fill:#000000;fill-opacity:1"
         transform="translate(222.30377,185.25716)"
         inkscape:label="Layer 1"
         id="layer1-626">
        <path
           style="fill:#000000;fill-opacity:1;stroke:#000000;stroke-width:0.00865757px;stroke-linecap:butt;stroke-linejoin:miter;stroke-opacity:1"
           d="m 89.215561,87.58015 q -4.27199,4.4723 -12.61573,8.4439 -8.34373,3.9716 -21.693712,3.9716 -19.490969,0 -31.806324,-13.6837 -12.315356,-13.6837 -12.315356,-35.511 v -1.6019 q 0,-21.9608 12.181856,-35.5777 12.181856,-13.617 32.407074,-13.617 10.813482,0 18.990342,3.3708 8.17686,3.3709 13.78386,8.9112 v 17.6219 h -9.21149 l -3.20399,-13.4167 q -3.27075,-2.67 -7.90987,-4.4055 -4.63911,-1.7355 -11.11385,-1.7355 -15.75298,0 -24.263591,10.7801 -8.510612,10.7801 -8.510612,27.9349 v 1.7354 q 0,17.4218 8.243612,28.1685 8.243612,10.7467 22.728339,10.7467 7.943242,0 13.016232,-1.6687 5.07299,-1.6688 8.14349,-3.6713 v -21.2932 l -15.95323,-0.6675 v -9.6787 h 29.10295 v 34.8434 z"
           id="G"
           inkscape:connector-curvature="0" />
      </g>
      <g
         style="fill:#000000;fill-opacity:1"
         transform="translate(346.04708,185.25716)"
         inkscape:label="Layer 1"
         id="layer1-87">
        <path
           style="fill:#000000;fill-opacity:1;stroke:#000000;stroke-width:0.00890729px;stroke-linecap:butt;stroke-linejoin:miter;stroke-opacity:1"
           d="M 1.0345815,8.72625 V 0.00445 H 36.951708 v 8.7218 l -11.194055,1.9229 v 34.5436 h 48.484695 v -34.5436 l -11.19406,-1.9229 v -8.7218 h 11.19406 13.52901 11.19406 v 8.7218 l -11.19406,1.9229 v 78.7704 l 11.19406,1.9229 v 8.6531 h -35.91713 v -8.6531 l 11.19406,-1.9229 V 55.83735 H 25.757653 v 33.5822 l 11.194055,1.9229 v 8.6531 H 1.0345815 v -8.6531 L 12.22864,89.41955 v -78.7704 z"
           id="H"
           inkscape:connector-curvature="0" />
      </g>
      <g
         style="fill:#000000;fill-opacity:1"
         transform="translate(448.53342,185.25716)"
         inkscape:label="Layer 1"
         id="layer1-96">
        <path
           style="fill:#000000;fill-opacity:1;stroke:#000000;stroke-width:0.00890729px;stroke-linecap:butt;stroke-linejoin:miter;stroke-opacity:1"
           d="m 32.041437,8.72625 v -8.7218 h 35.917126 v 8.7218 l -11.194055,1.9229 v 78.7704 l 11.194055,1.9229 v 8.6531 H 32.041437 v -8.6531 l 11.194058,-1.9229 v -78.7704 z"
           id="I"
           inkscape:connector-curvature="0" />
      </g>
      <g
         style="fill:#000000;fill-opacity:1"
         transform="translate(537.94127,185.25716)"
         inkscape:label="Layer 1"
         id="layer1-13">
        <path
           style="fill:#000000;fill-opacity:1;stroke:#000000;stroke-width:0.00878066px;stroke-linecap:butt;stroke-linejoin:miter;stroke-opacity:1"
           d="m 85.886954,0.00435 v 8.5978 l -11.03491,1.8956 v 60.7935 q 0,13.2013 -8.36081,20.9528 -8.36081,7.7516 -21.697484,7.7516 -14.216762,0 -22.61142,-7.21 -8.394659,-7.2099 -8.056165,-20.9528 l 0.135398,-0.4062 h 12.795085 q 0,9.1394 4.637372,13.6414 4.637372,4.5019 13.09973,4.5019 7.379174,0 12.050394,-4.9758 4.67122,-4.9759 4.67122,-13.3029 v -60.7935 l -11.03491,-1.8956 v -8.5978 h 24.37159 11.03491 z"
           id="J"
           inkscape:connector-curvature="0" />
      </g>
    </g>
    <g
       id="g4447"
       transform="translate(0,-2.020667)">
      <g
         style="fill:#000000;fill-opacity:1"
         transform="translate(111.54059,322.63791)"
         inkscape:label="Layer 1"
         id="layer1-91">
        <path
           style="fill:#000000;fill-opacity:1;stroke:#000000;stroke-width:0.00890729px;stroke-linecap:butt;stroke-linejoin:miter;stroke-opacity:1"
           d="M 4.9490665,91.34245 16.143125,89.41955 V 10.64915 L 4.9490665,8.72625 V 0.00445 H 40.866194 v 8.7218 l -11.194055,1.9229 v 33.5821 h 10.369955 l 27.95081,-34.5436 -7.4856,-0.9614 v -8.7218 h 31.727939 v 8.7218 l -9.4085,1.7168 -30.56046,37.9087 33.37614,41.2738 9.40851,1.7169 v 8.6531 h -32.82675 v -8.6531 l 7.62295,-0.9614 -28.50021,-35.5051 H 29.672139 v 34.5436 l 11.194055,1.9229 v 8.6531 H 4.9490665 v -8.6531 z"
           id="K"
           inkscape:connector-curvature="0" />
      </g>
      <g
         style="fill:#000000;fill-opacity:1"
         transform="translate(242.95906,322.63791)"
         inkscape:label="Layer 1"
         id="layer1-7">
        <path
           style="fill:#000000;fill-opacity:1;stroke:#000000;stroke-width:0.00890729px;stroke-linecap:butt;stroke-linejoin:miter;stroke-opacity:1"
           d="m 13.979856,99.99555 v -8.6531 l 11.194058,-1.9229 V 10.64915 L 13.979856,8.72625 v -8.7218 h 11.194058 13.529014 11.194056 v 8.7218 l -11.194056,1.9229 v 78.7704 h 34.749655 l 1.03012,-11.4687 h 11.537441 v 22.0447 H 13.979856 z"
           id="L"
           inkscape:connector-curvature="0" />
      </g>
      <g
         style="fill:#000000;fill-opacity:1"
         transform="translate(379.3266,322.63791)"
         inkscape:label="Layer 1"
         id="layer1-48">
        <path
           style="fill:#000000;fill-opacity:1;stroke:#000000;stroke-width:0.0073527px;stroke-linecap:butt;stroke-linejoin:miter;stroke-opacity:1"
           d="m 80.668928,25.170059 -0.283442,-0.05696 -26.700679,66.156493 h -7.426303 l -26.700682,-66.099783 -0.283447,0.05696 1.133787,33.390027 v 23.922873 l 9.24036,1.587297 v 7.142877 H 0 V 84.126966 L 9.2403631,82.539669 V 17.517041 L 0,15.929744 V 8.730157 H 9.2403631 23.526076 l 26.30385,67.063521 H 50.17007 L 76.417228,8.730157 H 100 v 7.199587 l -9.240366,1.587297 V 82.539669 L 100,84.126966 v 7.142877 H 70.351474 v -7.142877 l 9.240365,-1.587297 V 58.616796 z"
           id="M"
           inkscape:connector-curvature="0" />
      </g>
      <g
         style="fill:#000000;fill-opacity:1"
         transform="translate(528.6394,322.63791)"
         inkscape:label="Layer 1"
         id="layer1-61">
        <path
           style="fill:#000000;fill-opacity:1;stroke:#000000;stroke-width:0.00890729px;stroke-linecap:butt;stroke-linejoin:miter;stroke-opacity:1"
           d="m 98.965418,0.00445 v 8.7218 l -11.19406,1.9229 v 89.3464 h -13.52901 l -48.072644,-77.1909 -0.412051,0.1373 v 66.4776 l 11.194055,1.9229 v 8.6531 H 1.0345815 v -8.6531 L 12.22864,89.41955 V 10.64915 L 1.0345815,8.72625 V 0.00445 H 12.22864 25.757654 l 48.072644,77.1223 0.41205,-0.1374 v -66.3402 l -11.19406,-1.9229 v -8.7218 h 24.72307 11.19406 z"
           id="N"
           inkscape:connector-curvature="0" />
      </g>
    </g>
    <g
       id="g4457"
       transform="translate(0,-2.0203847)">
      <g
         style="fill:#000000;fill-opacity:1"
         transform="translate(88.109194,460.01865)"
         inkscape:label="Layer 1"
         id="layer1-20">
        <path
           style="fill:#000000;fill-opacity:1;stroke:#000000;stroke-width:0.00865757px;stroke-linecap:butt;stroke-linejoin:miter;stroke-opacity:1"
           d="m 93.020306,50.73425 q 0,21.2265 -12.18185,35.2439 -12.18186,14.0175 -31.53933,14.0175 -18.82347,0 -30.571451,-14.0175 Q 6.979694,71.96075 6.979694,50.73425 v -1.4017 q 0,-21.1598 11.747981,-35.244 11.747981,-14.0842 30.571451,-14.0842 19.35747,0 31.53933,14.0842 12.18185,14.0842 12.18185,35.244 v 1.4017 z m -13.14973,-1.5352 q 0,-16.9545 -8.11011,-27.6679 -8.11011,-10.7133 -22.46134,-10.7133 -13.75048,0 -21.46009,10.7467 -7.709613,10.7467 -7.709613,27.6345 v 1.5352 q 0,17.088 7.709613,27.8013 7.70961,10.7134 21.46009,10.7134 14.55148,0 22.56147,-10.68 8.00998,-10.68 8.00998,-27.8347 v -1.5352 z"
           id="O"
           inkscape:connector-curvature="0" />
      </g>
      <g
         style="fill:#000000;fill-opacity:1"
         transform="translate(210.12408,460.01865)"
         inkscape:label="Layer 1"
         id="layer1-02">
        <path
           style="fill:#000000;fill-opacity:1;stroke:#000000;stroke-width:0.00890729px;stroke-linecap:butt;stroke-linejoin:miter;stroke-opacity:1"
           d="m 56.077753,0.00445 q 16.00132,0 24.89476,8.241 8.89344,8.2411 8.89344,21.7014 0,13.5977 -8.89344,21.77 -8.89344,8.1724 -24.89476,8.1724 H 34.857118 v 29.5303 l 11.194056,1.9229 v 8.6531 H 10.134047 v -8.6531 l 11.194058,-1.9229 V 10.64915 L 10.134047,8.72625 v -8.7218 h 11.194058 34.749648 z m -21.220635,49.3088 h 21.220635 q 10.16393,0 15.21156,-5.4597 5.04763,-5.4597 5.04763,-13.7694 0,-8.3097 -5.04763,-13.8723 -5.04763,-5.5627 -15.21156,-5.5627 H 34.857118 v 38.6641 z"
           id="P"
           inkscape:connector-curvature="0" />
      </g>
      <g
         style="fill:#000000;fill-opacity:1"
         transform="translate(327.67456,460.01865)"
         inkscape:label="Layer 1"
         id="layer1-40">
        <path
           style="fill:#000000;fill-opacity:1;stroke:#000000;stroke-width:0.00762893px;stroke-linecap:butt;stroke-linejoin:miter;stroke-opacity:1"
           d="m 87.261863,44.70625 q 0,11.4109 -4.23497,20.822 -4.23497,9.411 -11.82263,15.1753 l 17.35162,12.2343 -7.94057,7.0583 -19.46911,-13.8813 q -2.94095,0.9411 -6.05836,1.4705 -3.11741,0.5294 -6.35245,0.5294 -16.586974,0 -26.939125,-12.352 -10.352151,-12.352 -10.352151,-31.0565 v -1.2352 q 0,-18.6456 10.352151,-31.0564 10.352151,-12.4108 26.939125,-12.4108 17.05752,0 27.79199,12.4108 10.73448,12.4108 10.73448,31.0564 v 1.2352 z m -11.58735,-1.3528 q 0,-14.94 -7.14652,-24.3805 -7.14651,-9.4405 -19.7926,-9.4405 -12.11673,0 -18.910326,9.4699 -6.793599,9.4699 -6.793599,24.3511 v 1.3528 q 0,15.0577 6.793599,24.4982 6.793596,9.4404 18.910326,9.4404 12.82255,0 19.88083,-9.411 7.05829,-9.4111 7.05829,-24.5276 v -1.3528 z"
           id="Q"
           inkscape:connector-curvature="0" />
      </g>
      <g
         style="fill:#000000;fill-opacity:1"
         transform="translate(448.24181,460.01865)"
         inkscape:label="Layer 1"
         id="layer1-25">
        <path
           style="fill:#000000;fill-opacity:1;stroke:#000000;stroke-width:0.00891341px;stroke-linecap:butt;stroke-linejoin:miter;stroke-opacity:1"
           d="m 51.030837,0.00445 q 16.35593,0 25.08367,7.2502 8.72775,7.2502 8.72775,20.5824 0,7.2846 -4.05463,12.9198 -4.05462,5.6352 -11.61408,8.8652 8.17796,2.6801 11.78589,8.7277 3.60793,6.0476 3.60793,14.9128 v 8.0405 q 0,4.6044 1.16828,6.8035 1.16828,2.1991 3.84845,2.6115 l 3.29868,0.4123 v 8.8652 h -7.28458 q -7.90307,0 -11.23611,-5.4978 -3.33304,-5.4978 -3.33304,-13.3321 v -7.7657 q 0,-8.1779 -4.74184,-13.126 -4.74185,-4.948 -12.71364,-4.948 H 31.857286 v 34.0863 l 11.201751,1.9243 v 8.659 H 7.117223 v -8.659 l 11.20175,-1.9243 V 10.58775 L 7.117223,8.66345 v -8.659 h 11.20175 32.711864 z m -19.173551,44.6696 h 17.799101 q 11.33919,0 16.49337,-4.3295 5.15418,-4.3296 5.15418,-12.645 0,-7.903 -4.94801,-12.5074 -4.94801,-4.6044 -15.32509,-4.6044 H 31.857286 v 34.0863 z"
           id="R"
           inkscape:connector-curvature="0" />
      </g>
      <g
         style="fill:#000000;fill-opacity:1"
         transform="translate(564.6294,460.01865)"
         inkscape:label="Layer 1"
         id="layer1-36">
        <path
           style="fill:#000000;fill-opacity:1;stroke:#000000;stroke-width:0.00865757px;stroke-linecap:butt;stroke-linejoin:miter;stroke-opacity:1"
           d="m 82.640695,30.10855 h -9.94573 l -2.46975,-13.884 q -3.00374,-2.5365 -8.00999,-4.2052 -5.00624,-1.6688 -11.61448,-1.6688 -10.47973,0 -16.08672,4.4389 -5.60699,4.4388 -5.60699,11.5811 0,6.3412 5.70711,10.5798 5.70712,4.2387 18.45635,7.4427 15.35247,3.8047 23.32909,11.2139 7.97661,7.4093 7.97661,18.3563 0,11.7479 -9.57861,18.8902 -9.57861,7.1422 -25.06459,7.1422 -11.21398,0 -19.92484,-3.6712 -8.71086,-3.6713 -14.18435,-9.612 v -18.0892 h 9.87898 l 2.5365,13.9507 q 3.80474,3.1372 9.07798,5.1397 5.27325,2.0025 12.61573,2.0025 9.94574,0 15.7196,-4.2052 5.77387,-4.2053 5.77387,-11.4142 0,-6.675 -5.00624,-11.1806 -5.00624,-4.5057 -17.68872,-7.5762 -15.41923,-3.6712 -24.09672,-10.8134 -8.67748,-7.1423 -8.67748,-17.9558 0,-11.4142 9.67873,-18.9903 9.67874,-7.5761 25.16471,-7.5761 10.21274,0 18.58985,3.5043 8.37711,3.5044 13.4501,8.5107 v 18.0892 z"
           id="S"
           inkscape:connector-curvature="0" />
      </g>
    </g>
    <g
       id="g4469"
       transform="translate(0,2.0205905)">
      <g
         style="fill:#000000;fill-opacity:1"
         transform="translate(80.550613,593.35879)"
         inkscape:label="Layer 1"
         id="layer1-943">
        <path
           style="fill:#000000;fill-opacity:1;stroke:#000000;stroke-width:0.00890729px;stroke-linecap:butt;stroke-linejoin:miter;stroke-opacity:1"
           d="m 91.548499,0.00445 v 22.1134 h -11.53744 l -1.03013,-11.4687 H 56.798843 v 78.7704 l 11.194058,1.9229 v 8.6531 h -35.91713 v -8.6531 l 11.194058,-1.9229 V 10.64915 H 21.019064 l -0.961453,11.4687 H 8.4515015 V 0.00445 H 91.548499 z"
           id="T"
           inkscape:connector-curvature="0" />
      </g>
      <g
         style="fill:#000000;fill-opacity:1"
         transform="translate(195.62902,593.35879)"
         inkscape:label="Layer 1"
         id="layer1-314">
        <path
           style="fill:#000000;fill-opacity:1;stroke:#000000;stroke-width:0.00878066px;stroke-linecap:butt;stroke-linejoin:miter;stroke-opacity:1"
           d="m 37.272615,0.00435 v 8.5978 l -11.034914,1.8956 v 56.3254 q 0,11.1703 6.363693,16.9586 6.363693,5.7882 16.789317,5.7882 10.96722,0 17.6694,-5.7544 6.70219,-5.7544 6.70219,-16.9924 v -56.3254 l -11.03491,-1.8956 v -8.5978 h 24.37159 11.03491 v 8.5978 l -11.03491,1.8956 v 56.3254 q 0,16.0446 -10.459481,24.6086 -10.45947,8.5639 -27.24879,8.5639 -16.315425,0 -26.402556,-8.5639 -10.08713,-8.564 -10.08713,-24.6086 V 10.49775 L 1.8661095,8.60215 v -8.5978 h 11.0349145 24.37159 z"
           id="U"
           inkscape:connector-curvature="0" />
      </g>
      <g
         style="fill:#000000;fill-opacity:1"
         transform="translate(316.47616,593.35879)"
         inkscape:label="Layer 1"
         id="layer1-26">
        <path
           style="fill:#000000;fill-opacity:1;stroke:#000000;stroke-width:0.00890729px;stroke-linecap:butt;stroke-linejoin:miter;stroke-opacity:1"
           d="m 34.273378,8.72625 -9.133801,1.4421 22.388115,64.9668 2.266282,7.8976 h 0.412051 l 2.266282,-7.8976 22.319436,-65.0354 -8.99645,-1.3735 v -8.7218 h 31.521921 v 8.7218 l -8.035,1.0988 -33.5135,90.1705 H 44.162607 L 10.649109,9.82505 2.6827865,8.72625 V 0.00445 H 34.273378 v 8.7218 z"
           id="V"
           inkscape:connector-curvature="0" />
      </g>
      <g
         style="fill:#000000;fill-opacity:1"
         transform="translate(439.18591,593.35879)"
         inkscape:label="Layer 1"
         id="layer1-89">
        <path
           style="fill:#000000;fill-opacity:1;stroke:#000000;stroke-width:0.00698775px;stroke-linecap:butt;stroke-linejoin:miter;stroke-opacity:1"
           d="m 24.893994,17.6207 -7.973581,1.2392 10.074727,43.2082 1.45464,9.8053 0.323253,0.054 2.101147,-9.8592 14.438646,-51.2896 h 9.374345 l 14.492521,51.2896 2.155022,10.0747 h 0.323253 l 1.562392,-10.0747 9.85922,-43.2082 -8.02745,-1.2392 v -6.8422 h 24.94438 v 6.8422 l -6.30344,0.8082 -17.07855,70.7924 H 67.132422 L 51.616265,34.8071 50.2155,27.7494 h -0.323253 l -1.346889,7.0577 -15.731659,54.4143 h -9.42822 L 6.3069305,18.429 0.0034915,17.6208 V 10.7786 H 24.893994 v 6.8422 z"
           id="W"
           inkscape:connector-curvature="0" />
      </g>
      <g
         style="fill:#000000;fill-opacity:1"
         transform="translate(559.83541,593.35879)"
         inkscape:label="Layer 1"
         id="layer1-68">
        <path
           style="fill:#000000;fill-opacity:1;stroke:#000000;stroke-width:0.00890729px;stroke-linecap:butt;stroke-linejoin:miter;stroke-opacity:1"
           d="M 4.7430415,91.34245 13.739492,89.83165 42.171025,49.58795 14.426244,10.23705 5.4297935,8.72625 V 0.00445 H 37.844488 v 8.7218 l -8.034999,0.8927 19.984484,30.0111 20.190505,-30.0111 -8.03499,-0.8927 v -8.7218 h 32.62072 v 8.7218 l -8.99646,1.5108 -27.744777,39.3509 28.362857,40.2437 9.065131,1.5108 v 8.6531 H 62.910938 v -8.6531 l 7.89765,-0.8928 -20.739915,-30.7664 -20.808585,30.7664 8.034998,0.8928 v 8.6531 H 4.7430415 v -8.6531 z"
           id="X"
           inkscape:connector-curvature="0" />
      </g>
    </g>
    <g
       id="g4481"
       transform="translate(0,4.0407505)">
      <g
         style="fill:#000000;fill-opacity:1"
         transform="translate(298.25643,728.71923)"
         inkscape:label="Layer 1"
         id="layer1-9">
        <path
           style="fill:#000000;fill-opacity:1;stroke:#000000;stroke-width:0.00865757px;stroke-linecap:butt;stroke-linejoin:miter;stroke-opacity:1"
           d="m 80.938575,61.54775 q 0,18.6232 -8.27699,28.5356 -8.27698,9.9123 -22.62821,9.9123 -14.28448,0 -22.62822,-9.9457 -8.34373,-9.9457 -8.34373,-28.5022 v -23.0287 q 0,-18.5565 8.27698,-28.5356 8.27699,-9.9791 22.56147,-9.9791 14.35123,0 22.69496,9.9791 8.34374,9.9791 8.34374,28.5356 v 23.0287 z m -13.14973,-25.8322 q 0,-12.6158 -4.57237,-18.9904 -4.57236,-6.3746 -13.3166,-6.3746 -8.61074,0 -13.14973,6.3746 -4.53899,6.3746 -4.53899,18.9904 v 28.5022 q 0,12.6157 4.60574,19.0571 4.60574,6.4413 13.21648,6.4413 8.74424,0 13.24985,-6.408 4.50562,-6.4079 4.50562,-19.0904 v -28.5022 z"
           id="0"
           inkscape:connector-curvature="0" />
      </g>
      <g
         style="fill:#000000;fill-opacity:1"
         transform="translate(388.0466,728.71923)"
         inkscape:label="Layer 1"
         id="layer1-3">
        <path
           style="fill:#000000;fill-opacity:1;stroke:#000000;stroke-width:0.00890729px;stroke-linecap:butt;stroke-linejoin:miter;stroke-opacity:1"
           d="m 27.95526,91.34245 15.45192,-1.9229 v -74.9246 l -15.72662,0.2747 V 6.32255 L 56.9362,0.00445 v 89.4151 l 15.38324,1.9229 v 8.6531 H 27.95526 v -8.6531 z"
           id="1"
           inkscape:connector-curvature="0" />
      </g>
      <g
         style="fill:#000000;fill-opacity:1"
         transform="translate(479.53535,728.71923)"
         inkscape:label="Layer 1"
         id="layer1-2">
        <path
           style="fill:#000000;fill-opacity:1;stroke:#000000;stroke-width:0.00878066px;stroke-linecap:butt;stroke-linejoin:miter;stroke-opacity:1"
           d="m 18.797117,99.99565 v -9.1394 l 32.292355,-35.8804 q 8.66546,-9.6809 11.74576,-15.3676 3.08029,-5.6867 3.08029,-11.6442 0,-7.3792 -4.33272,-12.4228 -4.33273,-5.0435 -11.44111,-5.0435 -10.22253,0 -15.029149,5.2128 -4.806619,5.2128 -4.806619,14.7583 H 17.510839 l -0.135398,-0.4062 q -0.338494,-12.7274 8.428509,-21.3928 8.767002,-8.6655 24.337742,-8.6655 13.33667,0 21.22359,7.7516 7.88692,7.7515 7.88692,19.7342 0,8.0561 -4.77277,16.1123 -4.77277,8.0562 -13.43822,17.3986 l -25.928669,28.2304 0.135398,0.3385 h 35.000311 l 1.08318,-11.3057 h 11.30571 v 21.7314 H 18.797117 z"
           id="2"
           inkscape:connector-curvature="0" />
      </g>
      <g
         style="fill:#000000;fill-opacity:1"
         transform="translate(579.38242,728.71923)"
         inkscape:label="Layer 1"
         id="layer1-94">
        <path
           style="fill:#000000;fill-opacity:1;stroke:#000000;stroke-width:0.00865757px;stroke-linecap:butt;stroke-linejoin:miter;stroke-opacity:1"
           d="m 38.558571,43.92575 h 11.48099 q 8.74423,0 12.3821,-4.3721 3.63787,-4.3721 3.63787,-12.1819 0,-8.3437 -4.13849,-12.6824 -4.1385,-4.3388 -12.21523,-4.3388 -7.67624,0 -12.31536,4.5056 -4.63912,4.5056 -4.63912,11.9816 h -12.61573 l -0.1335,-0.4005 q -0.33375,-11.0137 7.97661,-18.7233 8.31036,-7.7096 21.7271,-7.7096 13.48347,0 21.49346,7.1756 8.00999,7.1756 8.00999,20.4588 0,6.0075 -3.63787,11.9816 -3.63787,5.9742 -10.91361,9.1114 8.74424,2.8702 12.38211,9.0112 3.63787,6.141 3.63787,13.7505 0,13.2832 -8.71086,20.8927 -8.71087,7.6095 -22.26109,7.6095 -13.34999,0 -22.02747,-7.1756 -8.67749,-7.1756 -8.34374,-19.4576 l 0.20025,-0.4005 h 12.54898 q 0,7.6763 4.70587,12.2152 4.70587,4.539 12.91611,4.539 8.34373,0 13.08298,-4.539 4.73924,-4.5389 4.73924,-13.4167 0,-9.0112 -4.20525,-13.2832 -4.20524,-4.272 -13.28322,-4.272 h -11.48099 v -10.2795 z"
           id="4"
           inkscape:connector-curvature="0" />
      </g>
      <g
         style="fill:#000000;fill-opacity:1"
         transform="translate(78.570168,728.71923)"
         inkscape:label="Layer 1"
         id="layer1-38">
        <path
           style="fill:#000000;fill-opacity:1;stroke:#000000;stroke-width:0.00890729px;stroke-linecap:butt;stroke-linejoin:miter;stroke-opacity:1"
           d="m 39.801731,8.72625 -10.782006,1.3048 20.945936,40.7931 20.945937,-40.7931 -10.71333,-1.3048 v -8.7218 h 34.337601 v 8.7218 l -8.44705,1.3048 -29.66769,54.8028 v 24.5857 l 11.19406,1.9229 v 8.6531 H 31.766733 v -8.6531 l 11.194058,-1.9229 V 63.80375 L 13.842505,10.03105 5.4641315,8.72625 V 0.00445 H 39.801731 v 8.7218 z"
           id="Y"
           inkscape:connector-curvature="0" />
      </g>
      <g
         style="fill:#000000;fill-opacity:1"
         transform="translate(195.21195,728.71923)"
         inkscape:label="Layer 1"
         id="layer1-890">
        <path
           style="fill:#000000;fill-opacity:1;stroke:#000000;stroke-width:0.00890729px;stroke-linecap:butt;stroke-linejoin:miter;stroke-opacity:1"
           d="m 29.603464,89.41955 h 43.33405 l 1.098809,-11.4687 h 11.53743 v 22.0447 H 14.426247 v -10.0266 l 53.360626,-79.3198 h -40.10631 l -0.96146,11.4687 H 15.112999 V 0.00445 h 68.194474 v 9.6832 z"
           id="Z"
           inkscape:connector-curvature="0" />
      </g>
    </g>
  </g>
</svg>
