<?xml version="1.0" encoding="UTF-8" standalone="no"?>
<!-- Created with Inkscape (http://www.inkscape.org/) -->

<svg
   xmlns:dc="http://purl.org/dc/elements/1.1/"
   xmlns:cc="http://creativecommons.org/ns#"
   xmlns:rdf="http://www.w3.org/1999/02/22-rdf-syntax-ns#"
   xmlns:svg="http://www.w3.org/2000/svg"
   xmlns="http://www.w3.org/2000/svg"
   xmlns:sodipodi="http://sodipodi.sourceforge.net/DTD/sodipodi-0.dtd"
   xmlns:inkscape="http://www.inkscape.org/namespaces/inkscape"
   width="100"
   height="100"
   id="svg2"
   version="1.1"
   inkscape:version="0.48.4 r9939"
   sodipodi:docname="3_roboto_slab.svg">
  <defs
     id="defs4" />
  <sodipodi:namedview
     id="base"
     pagecolor="#ffffff"
     bordercolor="#666666"
     borderopacity="1.0"
     inkscape:pageopacity="0.0"
     inkscape:pageshadow="2"
     inkscape:zoom="3.9600001"
     inkscape:cx="53.826274"
     inkscape:cy="39.481782"
     inkscape:document-units="px"
     inkscape:current-layer="layer1"
     showgrid="false"
     showguides="true"
     inkscape:guide-bbox="true"
     inkscape:window-width="1307"
     inkscape:window-height="744"
     inkscape:window-x="59"
     inkscape:window-y="24"
     inkscape:window-maximized="1">
    <sodipodi:guide
       orientation="1,0"
       position="49.997449,88.924035"
       id="guide3030" />
  </sodipodi:namedview>
  <metadata
     id="metadata7">
    <rdf:RDF>
      <cc:Work
         rdf:about="">
        <dc:format>image/svg+xml</dc:format>
        <dc:type
           rdf:resource="http://purl.org/dc/dcmitype/StillImage" />
        <dc:title />
      </cc:Work>
    </rdf:RDF>
  </metadata>
  <g
     inkscape:label="Layer 1"
     inkscape:groupmode="layer"
     id="layer1">
    <path
       style="fill:none;stroke:#000000;stroke-width:1.0px;stroke-linecap:butt;stroke-linejoin:miter;stroke-opacity:1"
       d="m 38.558571,43.92575 h 11.48099 q 8.74423,0 12.3821,-4.3721 3.63787,-4.3721 3.63787,-12.1819 0,-8.3437 -4.13849,-12.6824 -4.1385,-4.3388 -12.21523,-4.3388 -7.67624,0 -12.31536,4.5056 -4.63912,4.5056 -4.63912,11.9816 h -12.61573 l -0.1335,-0.4005 q -0.33375,-11.0137 7.97661,-18.7233 8.31036,-7.7096 21.7271,-7.7096 13.48347,0 21.49346,7.1756 8.00999,7.1756 8.00999,20.4588 0,6.0075 -3.63787,11.9816 -3.63787,5.9742 -10.91361,9.1114 8.74424,2.8702 12.38211,9.0112 3.63787,6.141 3.63787,13.7505 0,13.2832 -8.71086,20.8927 -8.71087,7.6095 -22.26109,7.6095 -13.34999,0 -22.02747,-7.1756 -8.67749,-7.1756 -8.34374,-19.4576 l 0.20025,-0.4005 h 12.54898 q 0,7.6763 4.70587,12.2152 4.70587,4.539 12.91611,4.539 8.34373,0 13.08298,-4.539 4.73924,-4.5389 4.73924,-13.4167 0,-9.0112 -4.20525,-13.2832 -4.20524,-4.272 -13.28322,-4.272 h -11.48099 v -10.2795 z"
       id="4"
       inkscape:connector-curvature="0" />
  </g>
</svg>
