<?xml version="1.0" encoding="UTF-8" standalone="no"?>
<!-- Created with Inkscape (http://www.inkscape.org/) -->

<svg
   xmlns:dc="http://purl.org/dc/elements/1.1/"
   xmlns:cc="http://creativecommons.org/ns#"
   xmlns:rdf="http://www.w3.org/1999/02/22-rdf-syntax-ns#"
   xmlns:svg="http://www.w3.org/2000/svg"
   xmlns="http://www.w3.org/2000/svg"
   xmlns:sodipodi="http://sodipodi.sourceforge.net/DTD/sodipodi-0.dtd"
   xmlns:inkscape="http://www.inkscape.org/namespaces/inkscape"
   width="100"
   height="100"
   id="svg2"
   version="1.1"
   inkscape:version="0.48.4 r9939"
   sodipodi:docname="6_roboto_slab.svg">
  <defs
     id="defs4" />
  <sodipodi:namedview
     id="base"
     pagecolor="#ffffff"
     bordercolor="#666666"
     borderopacity="1.0"
     inkscape:pageopacity="0.0"
     inkscape:pageshadow="2"
     inkscape:zoom="2.8001429"
     inkscape:cx="-1.6472051"
     inkscape:cy="56.865432"
     inkscape:document-units="px"
     inkscape:current-layer="layer1"
     showgrid="false"
     showguides="true"
     inkscape:guide-bbox="true"
     inkscape:window-width="1307"
     inkscape:window-height="744"
     inkscape:window-x="59"
     inkscape:window-y="24"
     inkscape:window-maximized="1">
    <sodipodi:guide
       orientation="1,0"
       position="49.997449,88.924035"
       id="guide3030" />
  </sodipodi:namedview>
  <metadata
     id="metadata7">
    <rdf:RDF>
      <cc:Work
         rdf:about="">
        <dc:format>image/svg+xml</dc:format>
        <dc:type
           rdf:resource="http://purl.org/dc/dcmitype/StillImage" />
        <dc:title />
      </cc:Work>
    </rdf:RDF>
  </metadata>
  <g
     inkscape:label="Layer 1"
     inkscape:groupmode="layer"
     id="layer1">
    <path
       style="fill:none;stroke:#000000;stroke-width:1.0px;stroke-linecap:butt;stroke-linejoin:miter;stroke-opacity:1"
       d="m 54.67249,0.00435 q 4.93949,0 9.84561,1.1347 4.90612,1.1348 8.11011,2.8703 l -2.53649,9.8122 q -3.13725,-1.5352 -6.87524,-2.5031 -3.738,-0.9679 -8.54399,-0.9679 -10.21273,0 -16.2536,7.7096 -6.04086,7.7096 -6.44136,23.2624 l 0.267,0.267 q 3.73799,-3.471 9.14473,-5.5069 5.40674,-2.0359 11.68123,-2.0359 13.01623,0 20.75922,9.0113 7.74299,9.0112 7.74299,22.8284 0,15.0855 -8.24361,24.5974 -8.24362,9.5118 -21.99409,9.5118 -14.21773,0 -23.56272,-10.3462 -9.34498,-10.3462 -9.34498,-29.3032 v -13.083 q 0,-23.0955 10.14598,-35.1772 10.14599,-12.0817 26.09921,-12.0817 z m -4.47224,43.8547 q -6.74174,0 -11.48098,2.7033 -4.73925,2.7034 -7.20899,7.2424 v 7.8097 q 0,13.5503 5.64036,20.826 5.64037,7.2757 14.18436,7.2757 8.07673,0 12.58235,-6.8418 4.50562,-6.8419 4.50562,-16.9879 0,-9.612 -4.83937,-15.8197 -4.83937,-6.2077 -13.38335,-6.2077 z"
       id="6"
       inkscape:connector-curvature="0" />
  </g>
</svg>
