<?xml version="1.0" encoding="UTF-8" standalone="no"?>
<!-- Created with Inkscape (http://www.inkscape.org/) -->

<svg
   xmlns:dc="http://purl.org/dc/elements/1.1/"
   xmlns:cc="http://creativecommons.org/ns#"
   xmlns:rdf="http://www.w3.org/1999/02/22-rdf-syntax-ns#"
   xmlns:svg="http://www.w3.org/2000/svg"
   xmlns="http://www.w3.org/2000/svg"
   xmlns:sodipodi="http://sodipodi.sourceforge.net/DTD/sodipodi-0.dtd"
   xmlns:inkscape="http://www.inkscape.org/namespaces/inkscape"
   width="100"
   height="100"
   id="svg2"
   version="1.1"
   inkscape:version="0.48.4 r9939"
   sodipodi:docname="B_roboto_slab.svg">
  <defs
     id="defs4" />
  <sodipodi:namedview
     id="base"
     pagecolor="#ffffff"
     bordercolor="#666666"
     borderopacity="1.0"
     inkscape:pageopacity="0.0"
     inkscape:pageshadow="2"
     inkscape:zoom="2.8001429"
     inkscape:cx="-1.6472051"
     inkscape:cy="56.865432"
     inkscape:document-units="px"
     inkscape:current-layer="layer1"
     showgrid="false"
     showguides="true"
     inkscape:guide-bbox="true"
     inkscape:window-width="1307"
     inkscape:window-height="744"
     inkscape:window-x="59"
     inkscape:window-y="24"
     inkscape:window-maximized="1">
    <sodipodi:guide
       orientation="1,0"
       position="49.997449,88.924035"
       id="guide3030" />
  </sodipodi:namedview>
  <metadata
     id="metadata7">
    <rdf:RDF>
      <cc:Work
         rdf:about="">
        <dc:format>image/svg+xml</dc:format>
        <dc:type
           rdf:resource="http://purl.org/dc/dcmitype/StillImage" />
        <dc:title />
      </cc:Work>
    </rdf:RDF>
  </metadata>
  <g
     inkscape:label="Layer 1"
     inkscape:groupmode="layer"
     id="layer1">
    <path
       style="fill:none;stroke:#000000;stroke-width:1.0px;stroke-linecap:butt;stroke-linejoin:miter;stroke-opacity:1"
       d="m 53.227733,0.00445 q 15.65795,0 24.48271,6.7645 8.82476,6.7645 8.82476,20.2935 0,6.6615 -4.22352,11.9152 -4.22353,5.2536 -11.15972,7.7946 8.996451,1.9229 14.21577,8.8591 5.21931,6.9362 5.21931,16.1387 0,13.735 -8.92778,20.9803 -8.92777,7.2452 -24.17367,7.2452 H 9.4129565 v -8.6531 L 20.607015,89.41955 V 10.64915 L 9.4129565,8.72625 V 0.00445 H 20.607015 53.227733 z m -19.091705,53.0859 v 36.3292 h 23.349565 q 9.271161,0 14.38746,-4.5669 5.1163,-4.5669 5.1163,-12.9453 0,-8.7904 -4.2922,-13.8037 -4.2922,-5.0133 -13.1513,-5.0133 H 34.136028 z m 0,-10.5759 h 22.594145 q 7.27957,-0.2061 11.77779,-4.3266 4.49823,-4.1205 4.49823,-11.4001 0,-8.1036 -5.08197,-12.1211 -5.08196,-4.0175 -14.69649,-4.0175 H 34.136028 v 31.8653 z"
       id="k_mansalva"
       inkscape:connector-curvature="0" />
  </g>
</svg>
