<?xml version="1.0" encoding="UTF-8" standalone="no"?>
<!-- Created with Inkscape (http://www.inkscape.org/) -->

<svg
   xmlns:dc="http://purl.org/dc/elements/1.1/"
   xmlns:cc="http://creativecommons.org/ns#"
   xmlns:rdf="http://www.w3.org/1999/02/22-rdf-syntax-ns#"
   xmlns:svg="http://www.w3.org/2000/svg"
   xmlns="http://www.w3.org/2000/svg"
   xmlns:sodipodi="http://sodipodi.sourceforge.net/DTD/sodipodi-0.dtd"
   xmlns:inkscape="http://www.inkscape.org/namespaces/inkscape"
   width="100"
   height="100"
   id="svg2"
   version="1.1"
   inkscape:version="0.48.4 r9939"
   sodipodi:docname="S_roboto_slab.svg">
  <defs
     id="defs4" />
  <sodipodi:namedview
     id="base"
     pagecolor="#ffffff"
     bordercolor="#666666"
     borderopacity="1.0"
     inkscape:pageopacity="0.0"
     inkscape:pageshadow="2"
     inkscape:zoom="2.8001429"
     inkscape:cx="-1.6472051"
     inkscape:cy="56.865432"
     inkscape:document-units="px"
     inkscape:current-layer="layer1"
     showgrid="false"
     showguides="true"
     inkscape:guide-bbox="true"
     inkscape:window-width="1307"
     inkscape:window-height="744"
     inkscape:window-x="59"
     inkscape:window-y="24"
     inkscape:window-maximized="1">
    <sodipodi:guide
       orientation="1,0"
       position="49.997449,88.924035"
       id="guide3030" />
  </sodipodi:namedview>
  <metadata
     id="metadata7">
    <rdf:RDF>
      <cc:Work
         rdf:about="">
        <dc:format>image/svg+xml</dc:format>
        <dc:type
           rdf:resource="http://purl.org/dc/dcmitype/StillImage" />
        <dc:title />
      </cc:Work>
    </rdf:RDF>
  </metadata>
  <g
     inkscape:label="Layer 1"
     inkscape:groupmode="layer"
     id="layer1">
    <path
       style="fill:none;stroke:#000000;stroke-width:1.0px;stroke-linecap:butt;stroke-linejoin:miter;stroke-opacity:1"
       d="m 82.640695,30.10855 h -9.94573 l -2.46975,-13.884 q -3.00374,-2.5365 -8.00999,-4.2052 -5.00624,-1.6688 -11.61448,-1.6688 -10.47973,0 -16.08672,4.4389 -5.60699,4.4388 -5.60699,11.5811 0,6.3412 5.70711,10.5798 5.70712,4.2387 18.45635,7.4427 15.35247,3.8047 23.32909,11.2139 7.97661,7.4093 7.97661,18.3563 0,11.7479 -9.57861,18.8902 -9.57861,7.1422 -25.06459,7.1422 -11.21398,0 -19.92484,-3.6712 -8.71086,-3.6713 -14.18435,-9.612 v -18.0892 h 9.87898 l 2.5365,13.9507 q 3.80474,3.1372 9.07798,5.1397 5.27325,2.0025 12.61573,2.0025 9.94574,0 15.7196,-4.2052 5.77387,-4.2053 5.77387,-11.4142 0,-6.675 -5.00624,-11.1806 -5.00624,-4.5057 -17.68872,-7.5762 -15.41923,-3.6712 -24.09672,-10.8134 -8.67748,-7.1423 -8.67748,-17.9558 0,-11.4142 9.67873,-18.9903 9.67874,-7.5761 25.16471,-7.5761 10.21274,0 18.58985,3.5043 8.37711,3.5044 13.4501,8.5107 v 18.0892 z"
       id="S"
       inkscape:connector-curvature="0" />
  </g>
</svg>
