<?xml version="1.0" encoding="UTF-8" standalone="no"?>
<!-- Created with Inkscape (http://www.inkscape.org/) -->

<svg
   xmlns:dc="http://purl.org/dc/elements/1.1/"
   xmlns:cc="http://creativecommons.org/ns#"
   xmlns:rdf="http://www.w3.org/1999/02/22-rdf-syntax-ns#"
   xmlns:svg="http://www.w3.org/2000/svg"
   xmlns="http://www.w3.org/2000/svg"
   xmlns:sodipodi="http://sodipodi.sourceforge.net/DTD/sodipodi-0.dtd"
   xmlns:inkscape="http://www.inkscape.org/namespaces/inkscape"
   width="100"
   height="100"
   id="svg2"
   version="1.1"
   inkscape:version="0.48.4 r9939"
   sodipodi:docname="2_roboto_slab.svg">
  <defs
     id="defs4" />
  <sodipodi:namedview
     id="base"
     pagecolor="#ffffff"
     bordercolor="#666666"
     borderopacity="1.0"
     inkscape:pageopacity="0.0"
     inkscape:pageshadow="2"
     inkscape:zoom="2.8001429"
     inkscape:cx="-1.6472051"
     inkscape:cy="56.865432"
     inkscape:document-units="px"
     inkscape:current-layer="layer1"
     showgrid="false"
     showguides="true"
     inkscape:guide-bbox="true"
     inkscape:window-width="1307"
     inkscape:window-height="744"
     inkscape:window-x="59"
     inkscape:window-y="24"
     inkscape:window-maximized="1">
    <sodipodi:guide
       orientation="1,0"
       position="49.997449,88.924035"
       id="guide3030" />
  </sodipodi:namedview>
  <metadata
     id="metadata7">
    <rdf:RDF>
      <cc:Work
         rdf:about="">
        <dc:format>image/svg+xml</dc:format>
        <dc:type
           rdf:resource="http://purl.org/dc/dcmitype/StillImage" />
        <dc:title />
      </cc:Work>
    </rdf:RDF>
  </metadata>
  <g
     inkscape:label="Layer 1"
     inkscape:groupmode="layer"
     id="layer1">
    <path
       style="fill:none;stroke:#000000;stroke-width:1.0px;stroke-linecap:butt;stroke-linejoin:miter;stroke-opacity:1"
       d="m 18.797117,99.99565 v -9.1394 l 32.292355,-35.8804 q 8.66546,-9.6809 11.74576,-15.3676 3.08029,-5.6867 3.08029,-11.6442 0,-7.3792 -4.33272,-12.4228 -4.33273,-5.0435 -11.44111,-5.0435 -10.22253,0 -15.029149,5.2128 -4.806619,5.2128 -4.806619,14.7583 H 17.510839 l -0.135398,-0.4062 q -0.338494,-12.7274 8.428509,-21.3928 8.767002,-8.6655 24.337742,-8.6655 13.33667,0 21.22359,7.7516 7.88692,7.7515 7.88692,19.7342 0,8.0561 -4.77277,16.1123 -4.77277,8.0562 -13.43822,17.3986 l -25.928669,28.2304 0.135398,0.3385 h 35.000311 l 1.08318,-11.3057 h 11.30571 v 21.7314 H 18.797117 z"
       id="2"
       inkscape:connector-curvature="0" />
  </g>
</svg>
