<?xml version="1.0" encoding="UTF-8" standalone="no"?>
<!-- Created with Inkscape (http://www.inkscape.org/) -->

<svg
   xmlns:dc="http://purl.org/dc/elements/1.1/"
   xmlns:cc="http://creativecommons.org/ns#"
   xmlns:rdf="http://www.w3.org/1999/02/22-rdf-syntax-ns#"
   xmlns:svg="http://www.w3.org/2000/svg"
   xmlns="http://www.w3.org/2000/svg"
   xmlns:sodipodi="http://sodipodi.sourceforge.net/DTD/sodipodi-0.dtd"
   xmlns:inkscape="http://www.inkscape.org/namespaces/inkscape"
   width="100"
   height="100"
   id="svg2"
   version="1.1"
   inkscape:version="0.48.4 r9939"
   sodipodi:docname="5_roboto_slab.svg">
  <defs
     id="defs4" />
  <sodipodi:namedview
     id="base"
     pagecolor="#ffffff"
     bordercolor="#666666"
     borderopacity="1.0"
     inkscape:pageopacity="0.0"
     inkscape:pageshadow="2"
     inkscape:zoom="2.8001429"
     inkscape:cx="-1.6472051"
     inkscape:cy="56.865432"
     inkscape:document-units="px"
     inkscape:current-layer="layer1"
     showgrid="false"
     showguides="true"
     inkscape:guide-bbox="true"
     inkscape:window-width="1307"
     inkscape:window-height="744"
     inkscape:window-x="59"
     inkscape:window-y="24"
     inkscape:window-maximized="1">
    <sodipodi:guide
       orientation="1,0"
       position="49.997449,88.924035"
       id="guide3030" />
  </sodipodi:namedview>
  <metadata
     id="metadata7">
    <rdf:RDF>
      <cc:Work
         rdf:about="">
        <dc:format>image/svg+xml</dc:format>
        <dc:type
           rdf:resource="http://purl.org/dc/dcmitype/StillImage" />
        <dc:title />
      </cc:Work>
    </rdf:RDF>
  </metadata>
  <g
     inkscape:label="Layer 1"
     inkscape:groupmode="layer"
     id="layer1">
    <path
       style="fill:none;stroke:#000000;stroke-width:1.0px;stroke-linecap:butt;stroke-linejoin:miter;stroke-opacity:1"
       d="m 68.928465,19.50165 -1.28627,-7.65 h -29.44901 l -3.18185,27.6889 q 3.04645,-2.3018 6.87144,-3.825 3.82498,-1.5232 8.8347,-1.6586 13.60747,-0.1354 21.42669,8.8685 7.81922,9.004 7.81922,24.2362 0,14.8261 -7.95462,23.83 -7.95461,9.004 -23.18686,9.004 -12.52429,0 -20.8174,-6.8376 -8.293109,-6.8376 -7.954615,-20.1066 l 0.135398,-0.4062 h 12.050397 q 0,7.9885 4.63737,12.4566 4.63737,4.4681 11.94885,4.4681 8.46236,0 13.13358,-5.9575 4.67122,-5.9575 4.67122,-16.3154 0,-9.5455 -4.70507,-15.6046 -4.70507,-6.059 -13.03203,-6.059 -7.85307,0 -11.40726,2.3694 -3.55419,2.3695 -5.17896,7.2438 l -11.102614,-1.1509 5.686704,-54.0914 h 52.06043 v 19.4973 h -10.01944 z"
       id="5"
       inkscape:connector-curvature="0" />
  </g>
</svg>
