<?xml version="1.0" encoding="UTF-8" standalone="no"?>
<!-- Created with Inkscape (http://www.inkscape.org/) -->

<svg
   xmlns:dc="http://purl.org/dc/elements/1.1/"
   xmlns:cc="http://creativecommons.org/ns#"
   xmlns:rdf="http://www.w3.org/1999/02/22-rdf-syntax-ns#"
   xmlns:svg="http://www.w3.org/2000/svg"
   xmlns="http://www.w3.org/2000/svg"
   xmlns:sodipodi="http://sodipodi.sourceforge.net/DTD/sodipodi-0.dtd"
   xmlns:inkscape="http://www.inkscape.org/namespaces/inkscape"
   width="100"
   height="100"
   id="svg2"
   version="1.1"
   inkscape:version="0.48.4 r9939"
   sodipodi:docname="9_roboto_slab.svg">
  <defs
     id="defs4" />
  <sodipodi:namedview
     id="base"
     pagecolor="#ffffff"
     bordercolor="#666666"
     borderopacity="1.0"
     inkscape:pageopacity="0.0"
     inkscape:pageshadow="2"
     inkscape:zoom="2.8001429"
     inkscape:cx="-1.6472051"
     inkscape:cy="56.865432"
     inkscape:document-units="px"
     inkscape:current-layer="layer1"
     showgrid="false"
     showguides="true"
     inkscape:guide-bbox="true"
     inkscape:window-width="1307"
     inkscape:window-height="744"
     inkscape:window-x="59"
     inkscape:window-y="24"
     inkscape:window-maximized="1">
    <sodipodi:guide
       orientation="1,0"
       position="49.997449,88.924035"
       id="guide3030" />
  </sodipodi:namedview>
  <metadata
     id="metadata7">
    <rdf:RDF>
      <cc:Work
         rdf:about="">
        <dc:format>image/svg+xml</dc:format>
        <dc:type
           rdf:resource="http://purl.org/dc/dcmitype/StillImage" />
        <dc:title />
      </cc:Work>
    </rdf:RDF>
  </metadata>
  <g
     inkscape:label="Layer 1"
     inkscape:groupmode="layer"
     id="layer1">
    <path
       style="fill:none;stroke:#000000;stroke-width:1.0px;stroke-linecap:butt;stroke-linejoin:miter;stroke-opacity:1"
       d="m 47.063001,89.71615 q 9.47849,0 14.98535,-7.2423 5.50687,-7.2424 5.70712,-23.3291 l -0.267,-0.3338 q -2.66999,4.4723 -7.47599,6.8753 -4.80599,2.403 -10.81348,2.403 -14.21773,0 -22.427965,-8.7776 -8.210237,-8.7777 -8.210237,-24.6641 0,-15.219 8.777611,-24.9311 8.777611,-9.7121 21.326591,-9.7121 15.21898,0 23.99659,9.5118 8.77761,9.5119 8.77761,28.1351 v 17.5552 q 0,22.7618 -9.37836,33.7755 -9.37836,11.0137 -24.99784,11.0137 -5.07299,0 -10.37961,-0.9679 -5.306612,-0.9678 -9.511856,-2.9703 l 2.002497,-9.9458 q 4.071744,1.9358 8.310359,2.7702 4.23862,0.8343 9.57861,0.8343 z m 2.136,-31.9732 q 7.27574,0 12.11511,-3.1372 4.83936,-3.1373 6.97536,-8.01 v -10.2795 q 0,-12.8827 -4.90612,-19.4242 -4.90611,-6.5415 -14.31785,-6.5415 -7.27574,0 -12.31536,6.8085 -5.039613,6.8085 -5.039613,17.4885 0,10.4797 4.672493,16.7876 4.67249,6.3078 12.81598,6.3078 z"
       id="9"
       inkscape:connector-curvature="0" />
  </g>
</svg>
