<?xml version="1.0" encoding="UTF-8" standalone="no"?>
<!-- Created with Inkscape (http://www.inkscape.org/) -->

<svg
   xmlns:dc="http://purl.org/dc/elements/1.1/"
   xmlns:cc="http://creativecommons.org/ns#"
   xmlns:rdf="http://www.w3.org/1999/02/22-rdf-syntax-ns#"
   xmlns:svg="http://www.w3.org/2000/svg"
   xmlns="http://www.w3.org/2000/svg"
   xmlns:sodipodi="http://sodipodi.sourceforge.net/DTD/sodipodi-0.dtd"
   xmlns:inkscape="http://www.inkscape.org/namespaces/inkscape"
   width="100"
   height="100"
   id="svg2"
   version="1.1"
   inkscape:version="0.48.4 r9939"
   sodipodi:docname="C_roboto_slab.svg">
  <defs
     id="defs4" />
  <sodipodi:namedview
     id="base"
     pagecolor="#ffffff"
     bordercolor="#666666"
     borderopacity="1.0"
     inkscape:pageopacity="0.0"
     inkscape:pageshadow="2"
     inkscape:zoom="2.8001429"
     inkscape:cx="-1.6472051"
     inkscape:cy="56.865432"
     inkscape:document-units="px"
     inkscape:current-layer="layer1"
     showgrid="false"
     showguides="true"
     inkscape:guide-bbox="true"
     inkscape:window-width="1307"
     inkscape:window-height="744"
     inkscape:window-x="59"
     inkscape:window-y="24"
     inkscape:window-maximized="1">
    <sodipodi:guide
       orientation="1,0"
       position="49.997449,88.924035"
       id="guide3030" />
  </sodipodi:namedview>
  <metadata
     id="metadata7">
    <rdf:RDF>
      <cc:Work
         rdf:about="">
        <dc:format>image/svg+xml</dc:format>
        <dc:type
           rdf:resource="http://purl.org/dc/dcmitype/StillImage" />
        <dc:title />
      </cc:Work>
    </rdf:RDF>
  </metadata>
  <g
     inkscape:label="Layer 1"
     inkscape:groupmode="layer"
     id="layer1">
    <path
       style="fill:none;stroke:#000000;stroke-width:1.0px;stroke-linecap:butt;stroke-linejoin:miter;stroke-opacity:1"
       d="m 87.680316,31.24325 h -9.27824 l -2.46974,-13.7504 q -3.204,-3.1373 -7.87649,-5.1398 -4.67249,-2.0025 -11.14723,-2.0025 -15.15223,0 -23.295716,10.9804 -8.143487,10.9803 -8.143487,27.8681 v 1.5352 q 0,16.8877 7.976613,27.9348 7.97661,11.0471 22.12759,11.0471 6.60824,0 12.01498,-2.0692 5.40674,-2.0693 8.34374,-5.073 l 2.46974,-13.7505 h 9.27824 v 17.2882 q -4.20524,5.4068 -12.61573,9.6454 -8.41049,4.2386 -19.49097,4.2386 -18.95697,0 -31.105451,-14.0175 -12.148481,-14.0174 -12.148481,-35.2439 v -1.4017 q 0,-21.36 11.948231,-35.3441 11.948231,-13.9841 31.305701,-13.9841 11.08048,0 19.49097,4.3053 8.41049,4.3054 12.61573,9.6454 v 17.2882 z"
       id="C"
       inkscape:connector-curvature="0" />
  </g>
</svg>
