<?xml version="1.0" encoding="UTF-8" standalone="no"?>
<!-- Created with Inkscape (http://www.inkscape.org/) -->

<svg
   xmlns:dc="http://purl.org/dc/elements/1.1/"
   xmlns:cc="http://creativecommons.org/ns#"
   xmlns:rdf="http://www.w3.org/1999/02/22-rdf-syntax-ns#"
   xmlns:svg="http://www.w3.org/2000/svg"
   xmlns="http://www.w3.org/2000/svg"
   xmlns:sodipodi="http://sodipodi.sourceforge.net/DTD/sodipodi-0.dtd"
   xmlns:inkscape="http://www.inkscape.org/namespaces/inkscape"
   width="100"
   height="100"
   id="svg3314"
   version="1.1"
   inkscape:version="0.48.4 r9939"
   sodipodi:docname="icon16_box.svg">
  <defs
     id="defs3316" />
  <sodipodi:namedview
     id="base"
     pagecolor="#ffffff"
     bordercolor="#666666"
     borderopacity="1.0"
     inkscape:pageopacity="0.0"
     inkscape:pageshadow="2"
     inkscape:zoom="5.6"
     inkscape:cx="50.770812"
     inkscape:cy="49.734918"
     inkscape:document-units="px"
     inkscape:current-layer="layer1"
     showgrid="false"
     inkscape:window-width="1307"
     inkscape:window-height="744"
     inkscape:window-x="59"
     inkscape:window-y="24"
     inkscape:window-maximized="1" />
  <metadata
     id="metadata3319">
    <rdf:RDF>
      <cc:Work
         rdf:about="">
        <dc:format>image/svg+xml</dc:format>
        <dc:type
           rdf:resource="http://purl.org/dc/dcmitype/StillImage" />
        <dc:title></dc:title>
      </cc:Work>
    </rdf:RDF>
  </metadata>
  <g
     inkscape:label="Layer 1"
     inkscape:groupmode="layer"
     id="layer1">
    <g
       transform="matrix(1.25,0,0,-1.25,76.26,89.999995)"
       id="g360">
      <path
         inkscape:connector-curvature="0"
         id="path362"
         style="fill:none;stroke:#000000;stroke-width:2;stroke-linecap:round;stroke-linejoin:round;stroke-miterlimit:10;stroke-opacity:1;stroke-dasharray:none"
         d="m 0,0 -42.015,0 c -1.703,0 -3.084,1.381 -3.084,3.084 l 0,57.833 c 0,1.703 1.381,3.083 3.084,3.083 L 0,64 c 1.703,0 3.083,-1.38 3.083,-3.083 l 0,-57.833 C 3.083,1.381 1.703,0 0,0 z" />
    </g>
    <path
       id="path380"
       style="fill:none;stroke:#000000;stroke-width:2.5;stroke-linecap:round;stroke-linejoin:round;stroke-miterlimit:10;stroke-opacity:1;stroke-dasharray:none"
       d="m 64.0725,84.58262 11.04125,0 0,-28.75 -11.04125,0 0,28.75 z m -8.55125,0 -11.04125,0 0,-11.04125 11.04125,0 0,11.04125 z m -19.5925,0 -11.04125,0 0,-11.04125 11.04125,0 0,11.04125 z m 19.5925,-17.7075 -11.04125,0 0,-11.0425 11.04125,0 0,11.0425 z m -19.5925,0 -11.04125,0 0,-11.0425 11.04125,0 0,11.0425 z m 39.185,-17.70875 -11.04125,0 0,-11.04125 11.04125,0 0,11.04125 z m -19.5925,0 -11.04125,0 0,-11.04125 11.04125,0 0,11.04125 z m -19.5925,0 -11.04125,0 0,-11.04125 11.04125,0 0,11.04125 z m -11.0425,-34.1675 50.2275,0 0,15.20875 -50.2275,0 0,-15.20875 z" />
  </g>
</svg>
