<?xml version="1.0" encoding="UTF-8" standalone="no"?>
<!-- Created with Inkscape (http://www.inkscape.org/) -->

<svg
   xmlns:dc="http://purl.org/dc/elements/1.1/"
   xmlns:cc="http://creativecommons.org/ns#"
   xmlns:rdf="http://www.w3.org/1999/02/22-rdf-syntax-ns#"
   xmlns:svg="http://www.w3.org/2000/svg"
   xmlns="http://www.w3.org/2000/svg"
   xmlns:sodipodi="http://sodipodi.sourceforge.net/DTD/sodipodi-0.dtd"
   xmlns:inkscape="http://www.inkscape.org/namespaces/inkscape"
   width="100"
   height="100"
   id="svg3314"
   version="1.1"
   inkscape:version="0.48.4 r9939"
   sodipodi:docname="icon19_shield.svg">
  <defs
     id="defs3316">
    <mask
       maskUnits="userSpaceOnUse"
       id="mask3436">
      <path
         d="m 0,0 c -18.691,0 -33.843,15.152 -33.843,33.842 0,5.529 1.335,10.743 3.685,15.352 -10.972,-5.597 -18.491,-16.995 -18.491,-30.157 0,-18.691 15.152,-33.843 33.843,-33.843 13.162,0 24.56,7.519 30.157,18.491 C 10.742,1.334 5.528,0 0,0 z"
         style="fill:#ffffff;stroke:#000000;stroke-width:2;stroke-linecap:round;stroke-linejoin:round;stroke-miterlimit:10;stroke-opacity:1;stroke-dasharray:none"
         id="path3438"
         inkscape:connector-curvature="0" />
    </mask>
  </defs>
  <sodipodi:namedview
     id="base"
     pagecolor="#ffffff"
     bordercolor="#666666"
     borderopacity="1.0"
     inkscape:pageopacity="0.0"
     inkscape:pageshadow="2"
     inkscape:zoom="3.959798"
     inkscape:cx="31.715674"
     inkscape:cy="43.258671"
     inkscape:document-units="px"
     inkscape:current-layer="layer1"
     showgrid="false"
     inkscape:window-width="1307"
     inkscape:window-height="744"
     inkscape:window-x="59"
     inkscape:window-y="24"
     inkscape:window-maximized="1" />
  <metadata
     id="metadata3319">
    <rdf:RDF>
      <cc:Work
         rdf:about="">
        <dc:format>image/svg+xml</dc:format>
        <dc:type
           rdf:resource="http://purl.org/dc/dcmitype/StillImage" />
        <dc:title></dc:title>
      </cc:Work>
    </rdf:RDF>
  </metadata>
  <g
     inkscape:label="Layer 1"
     inkscape:groupmode="layer"
     id="layer1">
    <g
       id="g4026">
      <g
         id="g20"
         transform="matrix(1.25,0,0,-1.25,68.4375,49.999995)">
        <path
           d="m 0,0 c 0,-8.146 -6.604,-14.75 -14.75,-14.75 -8.146,0 -14.75,6.604 -14.75,14.75 0,8.146 6.604,14.75 14.75,14.75 C -6.604,14.75 0,8.146 0,0 z"
           style="fill:none;stroke:#000000;stroke-width:2;stroke-linecap:round;stroke-linejoin:round;stroke-miterlimit:10;stroke-opacity:1;stroke-dasharray:none"
           id="path22"
           inkscape:connector-curvature="0" />
      </g>
      <g
         id="g24"
         transform="matrix(1.25,0,0,-1.25,56.521625,39.708245)">
        <path
           d="M 0,0 C 2.723,-1.731 4.533,-4.775 4.533,-8.233"
           style="fill:none;stroke:#000000;stroke-width:2;stroke-linecap:round;stroke-linejoin:round;stroke-miterlimit:10;stroke-opacity:1;stroke-dasharray:none"
           id="path26"
           inkscape:connector-curvature="0" />
      </g>
      <g
         id="g28"
         transform="matrix(1.25,0,0,-1.25,50,37.812495)">
        <path
           d="M 0,0 C 0.579,0 1.146,-0.051 1.697,-0.148"
           style="fill:none;stroke:#000000;stroke-width:2;stroke-linecap:round;stroke-linejoin:round;stroke-miterlimit:10;stroke-opacity:1;stroke-dasharray:none"
           id="path30"
           inkscape:connector-curvature="0" />
      </g>
      <g
         id="g32"
         transform="matrix(1.25,0,0,-1.25,44.421375,26.093745)">
        <path
           d="M 0,0 4.463,12.875 8.926,0"
           style="fill:none;stroke:#000000;stroke-width:2;stroke-linecap:round;stroke-linejoin:round;stroke-miterlimit:10;stroke-opacity:1;stroke-dasharray:none"
           id="path34"
           inkscape:connector-curvature="0" />
      </g>
      <g
         id="g36"
         transform="matrix(1.25,0,0,-1.25,29.151,37.04037)">
        <path
           d="M 0,0 -5.948,12.26 6.312,6.312"
           style="fill:none;stroke:#000000;stroke-width:2;stroke-linecap:round;stroke-linejoin:round;stroke-miterlimit:10;stroke-opacity:1;stroke-dasharray:none"
           id="path38"
           inkscape:connector-curvature="0" />
      </g>
      <g
         id="g40"
         transform="matrix(1.25,0,0,-1.25,26.09375,55.57862)">
        <path
           d="M 0,0 -12.875,4.463 0,8.926"
           style="fill:none;stroke:#000000;stroke-width:2;stroke-linecap:round;stroke-linejoin:round;stroke-miterlimit:10;stroke-opacity:1;stroke-dasharray:none"
           id="path42"
           inkscape:connector-curvature="0" />
      </g>
      <g
         id="g44"
         transform="matrix(1.25,0,0,-1.25,37.040375,70.848995)">
        <path
           d="m 0,0 -12.26,-5.948 5.948,12.26"
           style="fill:none;stroke:#000000;stroke-width:2;stroke-linecap:round;stroke-linejoin:round;stroke-miterlimit:10;stroke-opacity:1;stroke-dasharray:none"
           id="path46"
           inkscape:connector-curvature="0" />
      </g>
      <g
         id="g48"
         transform="matrix(1.25,0,0,-1.25,55.578625,73.906245)">
        <path
           d="M 0,0 -4.463,-12.875 -8.926,0"
           style="fill:none;stroke:#000000;stroke-width:2;stroke-linecap:round;stroke-linejoin:round;stroke-miterlimit:10;stroke-opacity:1;stroke-dasharray:none"
           id="path50"
           inkscape:connector-curvature="0" />
      </g>
      <g
         id="g52"
         transform="matrix(1.25,0,0,-1.25,70.849,62.95962)">
        <path
           d="m 0,0 5.948,-12.26 -12.26,5.948"
           style="fill:none;stroke:#000000;stroke-width:2;stroke-linecap:round;stroke-linejoin:round;stroke-miterlimit:10;stroke-opacity:1;stroke-dasharray:none"
           id="path54"
           inkscape:connector-curvature="0" />
      </g>
      <g
         id="g56"
         transform="matrix(1.25,0,0,-1.25,73.90625,44.42137)">
        <path
           d="M 0,0 12.875,-4.463 0,-8.926"
           style="fill:none;stroke:#000000;stroke-width:2;stroke-linecap:round;stroke-linejoin:round;stroke-miterlimit:10;stroke-opacity:1;stroke-dasharray:none"
           id="path58"
           inkscape:connector-curvature="0" />
      </g>
      <g
         id="g60"
         transform="matrix(1.25,0,0,-1.25,62.959625,29.150995)">
        <path
           d="M 0,0 12.26,5.948 6.312,-6.312"
           style="fill:none;stroke:#000000;stroke-width:2;stroke-linecap:round;stroke-linejoin:round;stroke-miterlimit:10;stroke-opacity:1;stroke-dasharray:none"
           id="path62"
           inkscape:connector-curvature="0" />
      </g>
    </g>
  </g>
</svg>
