<?xml version="1.0" encoding="UTF-8" standalone="no"?>
<!-- Created with Inkscape (http://www.inkscape.org/) -->

<svg
   xmlns:dc="http://purl.org/dc/elements/1.1/"
   xmlns:cc="http://creativecommons.org/ns#"
   xmlns:rdf="http://www.w3.org/1999/02/22-rdf-syntax-ns#"
   xmlns:svg="http://www.w3.org/2000/svg"
   xmlns="http://www.w3.org/2000/svg"
   xmlns:sodipodi="http://sodipodi.sourceforge.net/DTD/sodipodi-0.dtd"
   xmlns:inkscape="http://www.inkscape.org/namespaces/inkscape"
   width="100"
   height="100"
   id="svg3314"
   version="1.1"
   inkscape:version="0.48.4 r9939"
   sodipodi:docname="icon20_sword.svg">
  <defs
     id="defs3316" />
  <sodipodi:namedview
     id="base"
     pagecolor="#ffffff"
     bordercolor="#666666"
     borderopacity="1.0"
     inkscape:pageopacity="0.0"
     inkscape:pageshadow="2"
     inkscape:zoom="5.6"
     inkscape:cx="50.770812"
     inkscape:cy="50.357144"
     inkscape:document-units="px"
     inkscape:current-layer="layer1"
     showgrid="false"
     inkscape:window-width="1307"
     inkscape:window-height="744"
     inkscape:window-x="59"
     inkscape:window-y="24"
     inkscape:window-maximized="1" />
  <metadata
     id="metadata3319">
    <rdf:RDF>
      <cc:Work
         rdf:about="">
        <dc:format>image/svg+xml</dc:format>
        <dc:type
           rdf:resource="http://purl.org/dc/dcmitype/StillImage" />
        <dc:title></dc:title>
      </cc:Work>
    </rdf:RDF>
  </metadata>
  <g
     inkscape:label="Layer 1"
     inkscape:groupmode="layer"
     id="layer1">
    <g
       transform="matrix(1.25,0,0,-1.25,74.684437,18.041185)"
       id="g434" />
    <g
       transform="matrix(1.25,0,0,-1.25,49.869312,46.316435)"
       id="g442" />
    <g
       transform="matrix(1.25,0,0,-1.25,64.099062,75.90131)"
       id="g446">
      <path
         inkscape:connector-curvature="0"
         id="path448"
         style="fill:none;stroke:#000000;stroke-width:2;stroke-linecap:round;stroke-linejoin:round;stroke-miterlimit:10;stroke-opacity:1;stroke-dasharray:none"
         d="m 0,0 c 0,-6.229 -5.05,-11.279 -11.279,-11.279 -6.23,0 -11.28,5.05 -11.28,11.279 0,6.229 5.05,11.279 11.28,11.279 C -5.05,11.279 0,6.229 0,0 z" />
    </g>
    <g
       transform="matrix(1.25,0,0,-1.25,49.999937,67.157435)"
       id="g450">
      <path
         id="path452"
         style="fill:none;stroke:#000000;stroke-width:2;stroke-linecap:round;stroke-linejoin:round;stroke-miterlimit:10;stroke-opacity:1;stroke-dasharray:none"
         d="M 0,0 2.056,-4.165 6.652,-4.833 3.326,-8.075 4.111,-12.653 0,-10.492 l -4.111,-2.161 0.785,4.578 -3.326,3.242 4.596,0.668 L 0,0 z m -0.1045,16.6728 -11.956,22.62 -7.687,0 15.767,-29.828 7.686,0 m 16.0421,29.8282 -39.495,0 4.178,6.433 31.139,0 4.178,-6.433 z" />
    </g>
    <g
       transform="matrix(1.25,0,0,-1.25,47.180187,62.084185)"
       id="g454">
      <path
         inkscape:connector-curvature="0"
         id="path456"
         style="fill:none;stroke:#000000;stroke-width:2;stroke-linecap:round;stroke-linejoin:round;stroke-miterlimit:10;stroke-opacity:1;stroke-dasharray:none"
         d="m 0,0 0,5.406 4.512,0 0,-5.406" />
    </g>
    <g
       transform="matrix(1.25,0,0,-1.25,54.631937,55.326435)"
       id="g438">
      <path
         inkscape:connector-curvature="0"
         id="path440"
         style="fill:none;stroke:#000000;stroke-width:2;stroke-linecap:round;stroke-linejoin:round;stroke-miterlimit:10;stroke-opacity:1;stroke-dasharray:none"
         d="m 0,0 -7.687,0 16.042,29.828 7.687,0 L 0,0 z" />
    </g>
  </g>
</svg>
