<?xml version="1.0" encoding="UTF-8" standalone="no"?>
<!-- Created with Inkscape (http://www.inkscape.org/) -->

<svg
   xmlns:dc="http://purl.org/dc/elements/1.1/"
   xmlns:cc="http://creativecommons.org/ns#"
   xmlns:rdf="http://www.w3.org/1999/02/22-rdf-syntax-ns#"
   xmlns:svg="http://www.w3.org/2000/svg"
   xmlns="http://www.w3.org/2000/svg"
   xmlns:sodipodi="http://sodipodi.sourceforge.net/DTD/sodipodi-0.dtd"
   xmlns:inkscape="http://www.inkscape.org/namespaces/inkscape"
   width="100"
   height="100"
   id="svg3314"
   version="1.1"
   inkscape:version="0.48.4 r9939"
   sodipodi:docname="icon10_diamond.svg">
  <defs
     id="defs3316" />
  <sodipodi:namedview
     id="base"
     pagecolor="#ffffff"
     bordercolor="#666666"
     borderopacity="1.0"
     inkscape:pageopacity="0.0"
     inkscape:pageshadow="2"
     inkscape:zoom="3.959798"
     inkscape:cx="37.577829"
     inkscape:cy="48.438827"
     inkscape:document-units="px"
     inkscape:current-layer="layer1"
     showgrid="false"
     inkscape:window-width="1307"
     inkscape:window-height="744"
     inkscape:window-x="59"
     inkscape:window-y="24"
     inkscape:window-maximized="1" />
  <metadata
     id="metadata3319">
    <rdf:RDF>
      <cc:Work
         rdf:about="">
        <dc:format>image/svg+xml</dc:format>
        <dc:type
           rdf:resource="http://purl.org/dc/dcmitype/StillImage" />
        <dc:title></dc:title>
      </cc:Work>
    </rdf:RDF>
  </metadata>
  <g
     inkscape:label="Layer 1"
     inkscape:groupmode="layer"
     id="layer1">
    <g
       id="g4327">
      <g
         id="g260"
         transform="matrix(1.25,0,0,-1.25,42.929995,84.60319)">
        <path
           d="m 0,0 -9.209,0 c -1.05,0 -1.9,-0.851 -1.9,-1.9 0,-1.05 0.85,-1.901 1.9,-1.901 l 13.397,0 c 1.17,0 2.119,0.949 2.119,2.119 l 0,2.036 c 2.736,-1.721 5.904,-2.634 9.137,-2.634 l 12.492,0 c 2.78,0 5.554,0.268 8.283,0.8 0.835,0.163 1.437,0.895 1.437,1.745 0,0.983 -0.796,1.778 -1.778,1.778 l -9.234,0 -13.097,0.518 C 12.103,2.618 10.781,3.385 10.015,4.61 9.6,5.274 9.388,6.038 9.357,6.82 8.677,24.104 -6.429,40.082 -6.429,40.082 l 0,14.84 c 0,0.645 -0.398,1.224 -1,1.454 l -7.018,2.687 c -0.525,0.201 -1.117,0.104 -1.55,-0.255 l -2.516,-2.085 c -0.279,-0.231 -0.631,-0.358 -0.993,-0.358 l -4.048,0 c -0.86,0 -1.556,-0.697 -1.556,-1.557 l 0,-2.674 c 0,-0.682 0.441,-1.283 1.092,-1.486 2.126,-0.661 6.61,-2.349 6.61,-4.823 0,-3.243 -10.202,-20.81 -1.217,-30.809 0,0 2.467,-6.959 -3.563,-15.016 l -2.255,0 c -1.05,0 -1.901,-0.851 -1.901,-1.9 0,-1.05 0.851,-1.901 1.901,-1.901 l 6.055,0 c 3.884,5.267 5.979,11.638 5.979,18.182 l 0,13.134"
           style="fill:none;stroke:#000000;stroke-width:2;stroke-linecap:round;stroke-linejoin:round;stroke-miterlimit:10;stroke-opacity:1;stroke-dasharray:none"
           id="path262"
           inkscape:connector-curvature="0" />
      </g>
      <g
         id="g264"
         transform="matrix(1.25,0,0,-1.25,42.929995,84.59169)">
        <path
           d="m 0,0 c -4.469,0 -8.091,3.622 -8.091,8.091 0,4.468 3.622,8.091 8.091,8.091"
           style="fill:none;stroke:#000000;stroke-width:2;stroke-linecap:round;stroke-linejoin:round;stroke-miterlimit:10;stroke-opacity:1;stroke-dasharray:none"
           id="path266"
           inkscape:connector-curvature="0" />
      </g>
      <g
         id="g268"
         transform="matrix(1.25,0,0,-1.25,27.503995,18.20069)">
        <path
           d="m 0,0 -0.574,-5.534 c -0.199,-1.919 1.306,-3.587 3.234,-3.587 1.796,0 3.252,1.455 3.252,3.251 l 0,4.316"
           style="fill:none;stroke:#000000;stroke-width:2;stroke-linecap:round;stroke-linejoin:round;stroke-miterlimit:10;stroke-opacity:1;stroke-dasharray:none"
           id="path270"
           inkscape:connector-curvature="0" />
      </g>
      <g
         id="g272"
         transform="matrix(1.25,0,0,-1.25,27.41912,55.06894)">
        <path
           d="m 0,0 2.047,-5.477 c 0.77,-2.059 2.247,-3.777 4.168,-4.846 l 0,-10e-4"
           style="fill:none;stroke:#000000;stroke-width:2;stroke-linecap:round;stroke-linejoin:round;stroke-miterlimit:10;stroke-opacity:1;stroke-dasharray:none"
           id="path274"
           inkscape:connector-curvature="0" />
      </g>
      <g
         id="g276"
         transform="matrix(1.25,0,0,-1.25,24.176995,16.31894)">
        <path
           d="M 0,0 0,0"
           style="fill:none;stroke:#000000;stroke-width:2;stroke-linecap:round;stroke-linejoin:round;stroke-miterlimit:10;stroke-opacity:1;stroke-dasharray:none"
           id="path278"
           inkscape:connector-curvature="0" />
      </g>
    </g>
  </g>
</svg>
