<?xml version="1.0" encoding="UTF-8" standalone="no"?>
<!-- Created with Inkscape (http://www.inkscape.org/) -->

<svg
   xmlns:dc="http://purl.org/dc/elements/1.1/"
   xmlns:cc="http://creativecommons.org/ns#"
   xmlns:rdf="http://www.w3.org/1999/02/22-rdf-syntax-ns#"
   xmlns:svg="http://www.w3.org/2000/svg"
   xmlns="http://www.w3.org/2000/svg"
   xmlns:sodipodi="http://sodipodi.sourceforge.net/DTD/sodipodi-0.dtd"
   xmlns:inkscape="http://www.inkscape.org/namespaces/inkscape"
   width="100"
   height="100"
   id="svg3314"
   version="1.1"
   inkscape:version="0.48.4 r9939"
   sodipodi:docname="single-icon-base.svg">
  <defs
     id="defs3316" />
  <sodipodi:namedview
     id="base"
     pagecolor="#ffffff"
     bordercolor="#666666"
     borderopacity="1.0"
     inkscape:pageopacity="0.0"
     inkscape:pageshadow="2"
     inkscape:zoom="3.959798"
     inkscape:cx="31.715674"
     inkscape:cy="43.258671"
     inkscape:document-units="px"
     inkscape:current-layer="layer1"
     showgrid="false"
     inkscape:window-width="1307"
     inkscape:window-height="744"
     inkscape:window-x="59"
     inkscape:window-y="24"
     inkscape:window-maximized="1" />
  <metadata
     id="metadata3319">
    <rdf:RDF>
      <cc:Work
         rdf:about="">
        <dc:format>image/svg+xml</dc:format>
        <dc:type
           rdf:resource="http://purl.org/dc/dcmitype/StillImage" />
        <dc:title></dc:title>
      </cc:Work>
    </rdf:RDF>
  </metadata>
  <g
     inkscape:label="Layer 1"
     inkscape:groupmode="layer"
     id="layer1">
    <g
       id="g3043">
      <g
         id="g76"
         transform="matrix(1.25,0,0,-1.25,59.146625,53.960105)">
        <path
           d="m 0,0 c 3.571,-3.865 8.429,-7.719 14.928,-10.498 0,0 -10.608,-4.537 -23.866,-4.47 -13.046,0.068 -23.855,4.47 -23.855,4.47 6.537,2.79 11.404,6.666 14.976,10.543"
           style="fill:none;stroke:#000000;stroke-width:2;stroke-linecap:round;stroke-linejoin:round;stroke-miterlimit:10;stroke-opacity:1;stroke-dasharray:none"
           id="path78"
           inkscape:connector-curvature="0" />
      </g>
      <g
         id="g80"
         transform="matrix(1.25,0,0,-1.25,58.33125,40.85148)">
        <path
           d="m 0,0 c 2.813,-2.812 6.499,-5.557 11.251,-7.585 0,0 -8.688,-3.72 -19.536,-3.664 -10.675,0.057 -19.527,3.664 -19.527,3.664 4.781,2.039 8.478,4.795 11.29,7.629"
           style="fill:none;stroke:#000000;stroke-width:2;stroke-linecap:round;stroke-linejoin:round;stroke-miterlimit:10;stroke-opacity:1;stroke-dasharray:none"
           id="path82"
           inkscape:connector-curvature="0" />
      </g>
      <g
         id="g84"
         transform="matrix(1.25,0,0,-1.25,54.011125,28.415605)">
        <path
           d="m 0,0 c 2.361,-2.846 5.789,-5.826 10.598,-7.876 0,0 -6.854,-2.936 -15.427,-2.891 -8.429,0.045 -15.418,2.891 -15.418,2.891 4.829,2.061 8.256,5.053 10.618,7.909"
           style="fill:none;stroke:#000000;stroke-width:2;stroke-linecap:round;stroke-linejoin:round;stroke-miterlimit:10;stroke-opacity:1;stroke-dasharray:none"
           id="path86"
           inkscape:connector-curvature="0" />
      </g>
      <g
         id="g88"
         transform="matrix(1.25,0,0,-1.25,47.979125,10.000105)">
        <path
           d="m 0,0 c 0,0 -2.542,-8.73 -12.131,-12.823 0,0 5.496,-2.24 12.131,-2.274 6.738,-0.034 12.132,2.274 12.132,2.274 C 2.542,-8.73 0,0 0,0 z"
           style="fill:none;stroke:#000000;stroke-width:2;stroke-linecap:round;stroke-linejoin:round;stroke-miterlimit:10;stroke-opacity:1;stroke-dasharray:none"
           id="path90"
           inkscape:connector-curvature="0" />
      </g>
      <g
         id="g92"
         transform="matrix(1.25,0,0,-1.25,51.82675,72.59473)">
        <path
           d="m 0,0 1.334,-13.224 c -2.941,-0.934 -5.885,-0.933 -8.832,0 L -6.144,0.03"
           style="fill:none;stroke:#000000;stroke-width:2;stroke-linecap:round;stroke-linejoin:round;stroke-miterlimit:10;stroke-opacity:1;stroke-dasharray:none"
           id="path94"
           inkscape:connector-curvature="0" />
      </g>
      <g
         id="g96"
         transform="matrix(1.25,0,0,-1.25,27.265625,17.031355)">
        <path
           d="M 0,0 2.125,0"
           style="fill:none;stroke:#000000;stroke-width:2;stroke-linecap:round;stroke-linejoin:round;stroke-miterlimit:10;stroke-opacity:1;stroke-dasharray:none"
           id="path98"
           inkscape:connector-curvature="0" />
      </g>
      <g
         id="g100"
         transform="matrix(1.25,0,0,-1.25,14.453125,17.031355)">
        <path
           d="M 0,0 6.75,0"
           style="fill:none;stroke:#000000;stroke-width:2;stroke-linecap:round;stroke-linejoin:round;stroke-miterlimit:10;stroke-opacity:1;stroke-dasharray:none"
           id="path102"
           inkscape:connector-curvature="0" />
      </g>
      <g
         id="g104"
         transform="matrix(1.25,0,0,-1.25,74.140625,31.01573)">
        <path
           d="M 0,0 9.125,0"
           style="fill:none;stroke:#000000;stroke-width:2;stroke-linecap:round;stroke-linejoin:round;stroke-miterlimit:10;stroke-opacity:1;stroke-dasharray:none"
           id="path106"
           inkscape:connector-curvature="0" />
      </g>
      <g
         id="g108"
         transform="matrix(1.25,0,0,-1.25,66.484375,31.01573)">
        <path
           d="M 0,0 2,0"
           style="fill:none;stroke:#000000;stroke-width:2;stroke-linecap:round;stroke-linejoin:round;stroke-miterlimit:10;stroke-opacity:1;stroke-dasharray:none"
           id="path110"
           inkscape:connector-curvature="0" />
      </g>
    </g>
  </g>
</svg>
