<?xml version="1.0" encoding="UTF-8" standalone="no"?>
<!-- Created with Inkscape (http://www.inkscape.org/) -->

<svg
   xmlns:dc="http://purl.org/dc/elements/1.1/"
   xmlns:cc="http://creativecommons.org/ns#"
   xmlns:rdf="http://www.w3.org/1999/02/22-rdf-syntax-ns#"
   xmlns:svg="http://www.w3.org/2000/svg"
   xmlns="http://www.w3.org/2000/svg"
   xmlns:sodipodi="http://sodipodi.sourceforge.net/DTD/sodipodi-0.dtd"
   xmlns:inkscape="http://www.inkscape.org/namespaces/inkscape"
   width="100"
   height="100"
   id="svg3314"
   version="1.1"
   inkscape:version="0.48.4 r9939"
   sodipodi:docname="icon22_certificate.svg">
  <defs
     id="defs3316" />
  <sodipodi:namedview
     id="base"
     pagecolor="#ffffff"
     bordercolor="#666666"
     borderopacity="1.0"
     inkscape:pageopacity="0.0"
     inkscape:pageshadow="2"
     inkscape:zoom="3.959798"
     inkscape:cx="49.8625"
     inkscape:cy="52.633867"
     inkscape:document-units="px"
     inkscape:current-layer="layer1"
     showgrid="false"
     inkscape:window-width="1307"
     inkscape:window-height="744"
     inkscape:window-x="59"
     inkscape:window-y="24"
     inkscape:window-maximized="1" />
  <metadata
     id="metadata3319">
    <rdf:RDF>
      <cc:Work
         rdf:about="">
        <dc:format>image/svg+xml</dc:format>
        <dc:type
           rdf:resource="http://purl.org/dc/dcmitype/StillImage" />
        <dc:title></dc:title>
      </cc:Work>
    </rdf:RDF>
  </metadata>
  <g
     inkscape:label="Layer 1"
     inkscape:groupmode="layer"
     id="layer1">
    <g
       transform="matrix(1.25,0,0,-1.25,26.09525,67.603745)"
       id="g498" />
    <g
       transform="matrix(1.25,0,0,-1.25,40.350625,9.999995)"
       id="g502" />
    <g
       transform="matrix(1.25,0,0,-1.25,40.350625,9.999995)"
       id="g506" />
    <g
       transform="matrix(1.25,0,0,-1.25,71.6275,60.259995)"
       id="g510"
       style="fill:#008000" />
    <g
       transform="matrix(1.25,0,0,-1.25,19.1525,89.999995)"
       id="g514"
       style="fill:#008000" />
    <g
       transform="matrix(1.25,0,0,-1.25,32.74625,67.69537)"
       id="g518"
       style="fill:#008000" />
    <g
       transform="matrix(1.25,0,0,-1.25,29.7775,75.12937)"
       id="g522"
       style="fill:#008000" />
    <g
       transform="matrix(1.25,0,0,-1.25,73.12475,82.564745)"
       id="g526"
       style="fill:#008000" />
    <g
       transform="matrix(1.25,0,0,-1.25,28.37125,60.259995)"
       id="g530"
       style="fill:#008000" />
    <g
       transform="matrix(1.25,0,0,-1.25,80.84625,89.999995)"
       id="g534"
       style="fill:#008000" />
    <g
       transform="matrix(1.25,0,0,-1.25,9.99975,44.062495)"
       id="g538">
      <path
         id="path540"
         style="fill:none;stroke:#000000;stroke-width:2;stroke-linecap:round;stroke-linejoin:round;stroke-miterlimit:10;stroke-opacity:1;stroke-dasharray:none"
         d="m 0,0 64,0 m -7.3228,-36.75 -49.355,0 m 7.375,23.792 34.605,0 m 1.1978,-17.8438 -37,0 m 2.3222,5.9483 32.355,0 m -29.98,5.9472 27.605,0 m -38.48,-17.8437 7.375,23.792 m 34.605,0 7.375,-23.792 m -32.3965,64 0,-9.583 -9.583,0 m 9.583,9.583 25.021,0 0,-17.916 -34.604,0 0,8.333 9.583,9.583 z m -11.4043,-46.083 -8.903,0 c -2.195,0 -3.973,1.779 -3.973,3.974 l 0,20.219 c 0,2.195 1.778,3.974 3.973,3.974 l 56.052,0 c 2.195,0 3.975,-1.779 3.975,-3.974 l 0,-20.219 c 0,-2.195 -1.78,-3.974 -3.975,-3.974 l -8.902,0" />
    </g>
    <g
       id="g5165"
       transform="matrix(1.25,0,0,-1.25,26.09525,67.603745)">
      <path
         d="m -12.785714,18.928571 -0.09029,5.264429 c -0.09193,2.193074 1.778,3.974 3.973,3.974 l 56.052,0 c 2.195,0 3.975,-1.779 3.975,-3.974 -0.01144,-0.325403 -0.0046,-4.335857 -0.16271,-5.478714"
         style="fill:none;stroke:#000000;stroke-width:2;stroke-linecap:round;stroke-linejoin:round;stroke-miterlimit:10;stroke-opacity:1;stroke-dasharray:none"
         id="path5167"
         inkscape:connector-curvature="0"
         sodipodi:nodetypes="ccsscc" />
    </g>
  </g>
</svg>
