<?xml version="1.0" encoding="UTF-8" standalone="no"?>
<!-- Created with Inkscape (http://www.inkscape.org/) -->

<svg
   xmlns:dc="http://purl.org/dc/elements/1.1/"
   xmlns:cc="http://creativecommons.org/ns#"
   xmlns:rdf="http://www.w3.org/1999/02/22-rdf-syntax-ns#"
   xmlns:svg="http://www.w3.org/2000/svg"
   xmlns="http://www.w3.org/2000/svg"
   xmlns:sodipodi="http://sodipodi.sourceforge.net/DTD/sodipodi-0.dtd"
   xmlns:inkscape="http://www.inkscape.org/namespaces/inkscape"
   width="100"
   height="100"
   id="svg3314"
   version="1.1"
   inkscape:version="0.48.4 r9939"
   sodipodi:docname="icon24_chair.svg">
  <defs
     id="defs3316" />
  <sodipodi:namedview
     id="base"
     pagecolor="#ffffff"
     bordercolor="#666666"
     borderopacity="1.0"
     inkscape:pageopacity="0.0"
     inkscape:pageshadow="2"
     inkscape:zoom="3.959798"
     inkscape:cx="49.8625"
     inkscape:cy="52.633867"
     inkscape:document-units="px"
     inkscape:current-layer="layer1"
     showgrid="false"
     inkscape:window-width="1307"
     inkscape:window-height="744"
     inkscape:window-x="59"
     inkscape:window-y="24"
     inkscape:window-maximized="1" />
  <metadata
     id="metadata3319">
    <rdf:RDF>
      <cc:Work
         rdf:about="">
        <dc:format>image/svg+xml</dc:format>
        <dc:type
           rdf:resource="http://purl.org/dc/dcmitype/StillImage" />
        <dc:title></dc:title>
      </cc:Work>
    </rdf:RDF>
  </metadata>
  <g
     inkscape:label="Layer 1"
     inkscape:groupmode="layer"
     id="layer1">
    <g
       transform="matrix(1.25,0,0,-1.25,83.3325,27.188125)"
       id="g592"
       style="fill:#008000">
      <path
         inkscape:connector-curvature="0"
         id="path594"
         style="fill:#008000;stroke:#000000;stroke-width:2;stroke-linecap:round;stroke-linejoin:round;stroke-miterlimit:10;stroke-opacity:1;stroke-dasharray:none"
         d="m 0,0 5.334,0 0,-41.833 -64,0 0,41.833 5.005,0" />
    </g>
    <g
       transform="matrix(1.25,0,0,-1.25,49.794875,79.479375)"
       id="g596"
       style="fill:#ececec" />
    <g
       transform="matrix(1.25,0,0,-1.25,49.794875,79.479375)"
       id="g600"
       style="fill:#ececec" />
    <g
       transform="matrix(1.25,0,0,-1.25,56.596625,32.188125)"
       id="g604" />
    <g
       transform="matrix(1.25,0,0,-1.25,56.596625,46.666875)"
       id="g608" />
    <g
       transform="matrix(1.25,0,0,-1.25,56.596625,61.145625)"
       id="g612" />
    <g
       transform="matrix(1.25,0,0,-1.25,42.992,32.188125)"
       id="g616" />
    <g
       transform="matrix(1.25,0,0,-1.25,42.992,46.666875)"
       id="g620" />
    <g
       transform="matrix(1.25,0,0,-1.25,42.992,61.145625)"
       id="g624">
      <path
         id="path626"
         style="fill:#f2f2f2;stroke:#000000;stroke-width:2;stroke-linecap:round;stroke-linejoin:round;stroke-miterlimit:10;stroke-opacity:1;stroke-dasharray:none"
         d="M 0,0 -16.11,0 M 0,11.583 l -16.11,0 M 0,23.166 l -16.11,0 M 10.8837,0 26.9947,0 m -16.111,11.583 16.111,0 m -16.111,11.583 16.111,0 m -21.5524,-37.833 0,41.833 c 0,2.946 -2.388,5.334 -5.334,5.334 l -21.497,0 0,-41.834 21.497,0 c 2.946,0 5.334,-2.388 5.334,-5.333 z m 0,0 0,41.833 c 0,2.946 2.388,5.334 5.333,5.334 l 21.497,0 0,-41.834 -21.497,0 c -2.945,0 -5.333,-2.388 -5.333,-5.333 z" />
    </g>
  </g>
</svg>
