<?xml version="1.0" encoding="UTF-8" standalone="no"?>
<!-- Created with Inkscape (http://www.inkscape.org/) -->

<svg
   xmlns:dc="http://purl.org/dc/elements/1.1/"
   xmlns:cc="http://creativecommons.org/ns#"
   xmlns:rdf="http://www.w3.org/1999/02/22-rdf-syntax-ns#"
   xmlns:svg="http://www.w3.org/2000/svg"
   xmlns="http://www.w3.org/2000/svg"
   xmlns:sodipodi="http://sodipodi.sourceforge.net/DTD/sodipodi-0.dtd"
   xmlns:inkscape="http://www.inkscape.org/namespaces/inkscape"
   width="100"
   height="100"
   id="svg3314"
   version="1.1"
   inkscape:version="0.48.4 r9939"
   sodipodi:docname="icon28_boomerang.svg">
  <defs
     id="defs3316" />
  <sodipodi:namedview
     id="base"
     pagecolor="#ffffff"
     bordercolor="#666666"
     borderopacity="1.0"
     inkscape:pageopacity="0.0"
     inkscape:pageshadow="2"
     inkscape:zoom="3.959798"
     inkscape:cx="75.849011"
     inkscape:cy="47.239335"
     inkscape:document-units="px"
     inkscape:current-layer="layer1"
     showgrid="false"
     inkscape:window-width="1307"
     inkscape:window-height="744"
     inkscape:window-x="59"
     inkscape:window-y="24"
     inkscape:window-maximized="1" />
  <metadata
     id="metadata3319">
    <rdf:RDF>
      <cc:Work
         rdf:about="">
        <dc:format>image/svg+xml</dc:format>
        <dc:type
           rdf:resource="http://purl.org/dc/dcmitype/StillImage" />
        <dc:title></dc:title>
      </cc:Work>
    </rdf:RDF>
  </metadata>
  <g
     inkscape:label="Layer 1"
     inkscape:groupmode="layer"
     id="layer1">
    <g
       id="g84"
       transform="matrix(1.25,0,0,-1.25,81.25,89.999935)" />
    <path
       id="path88"
       style="fill:none;stroke:#000000;stroke-width:2.5;stroke-linecap:round;stroke-linejoin:round;stroke-miterlimit:10;stroke-opacity:1;stroke-dasharray:none"
       d="m 52.818625,65.00006 -5.63625,0 0,-55 5.63625,0 0,55 z M 81.25,89.999935 c 0,0 -60.98375,0 -71.25,-25 l 80,0 -8.75,25 z" />
    <g
       id="g90"
       transform="matrix(1.25,0,0,-1.25,52.818,59.999935)"
       style="fill:#008000" />
    <g
       id="g94"
       transform="matrix(1.25,0,0,-1.25,47.182,17.187435)"
       style="fill:#008000">
      <path
         id="path96"
         style="fill:#008000;stroke:#000000;stroke-width:2;stroke-linecap:round;stroke-linejoin:round;stroke-miterlimit:10;stroke-opacity:1;stroke-dasharray:none"
         d="m 0,0 c 0,0 -24.283,-2.375 -25.908,-38.25 0,0 12.954,13 25.908,4 0,0 -10.842,20.75 0,34.25 z m 4.5088,-34.25 23.333,0 C 27.8418,-13.78 4.5088,0 4.5088,0 c 0,0 12.167,-21.875 0,-34.25 z" />
    </g>
  </g>
</svg>
