<?xml version="1.0" encoding="UTF-8" standalone="no"?>
<!-- Created with Inkscape (http://www.inkscape.org/) -->

<svg
   xmlns:dc="http://purl.org/dc/elements/1.1/"
   xmlns:cc="http://creativecommons.org/ns#"
   xmlns:rdf="http://www.w3.org/1999/02/22-rdf-syntax-ns#"
   xmlns:svg="http://www.w3.org/2000/svg"
   xmlns="http://www.w3.org/2000/svg"
   xmlns:sodipodi="http://sodipodi.sourceforge.net/DTD/sodipodi-0.dtd"
   xmlns:inkscape="http://www.inkscape.org/namespaces/inkscape"
   width="100"
   height="100"
   id="svg3314"
   version="1.1"
   inkscape:version="0.48.4 r9939"
   sodipodi:docname="icon14_elephant.svg">
  <defs
     id="defs3316" />
  <sodipodi:namedview
     id="base"
     pagecolor="#ffffff"
     bordercolor="#666666"
     borderopacity="1.0"
     inkscape:pageopacity="0.0"
     inkscape:pageshadow="2"
     inkscape:zoom="15.839192"
     inkscape:cx="71.129736"
     inkscape:cy="41.765145"
     inkscape:document-units="px"
     inkscape:current-layer="layer1"
     showgrid="false"
     inkscape:window-width="1307"
     inkscape:window-height="744"
     inkscape:window-x="59"
     inkscape:window-y="24"
     inkscape:window-maximized="1" />
  <metadata
     id="metadata3319">
    <rdf:RDF>
      <cc:Work
         rdf:about="">
        <dc:format>image/svg+xml</dc:format>
        <dc:type
           rdf:resource="http://purl.org/dc/dcmitype/StillImage" />
        <dc:title></dc:title>
      </cc:Work>
    </rdf:RDF>
  </metadata>
  <g
     inkscape:label="Layer 1"
     inkscape:groupmode="layer"
     id="layer1">
    <g
       id="g4459">
      <g
         id="g280"
         transform="matrix(1.25,0,0,-1.25,36.686005,46.71491)">
        <path
           d="m 0,0 c 0.22,-7.214 -4.435,-10.933 -4.709,-13.347 -0.274,-2.414 -2.313,-9.365 -3.41,-10.133 0,0 1.728,-2.277 7.132,-0.659 0,0 -0.135,4.912 0.995,7.708 1.857,4.599 11.101,14.84 11.101,18.242"
           style="fill:none;stroke:#000000;stroke-width:2;stroke-linecap:round;stroke-linejoin:round;stroke-miterlimit:10;stroke-opacity:1;stroke-dasharray:none"
           id="path282"
           inkscape:connector-curvature="0" />
      </g>
      <g
         id="g284"
         transform="matrix(1.25,0,0,-1.25,67.37263,54.68366)">
        <path
           inkscape:connector-curvature="0"
           id="path4494"
           style="fill:none;stroke:#000000;stroke-width:2;stroke-linecap:round;stroke-linejoin:round;stroke-miterlimit:10;stroke-opacity:1;stroke-dasharray:none"
           d="m -17.382,0.801 c 0,0 2.105,-10.007 3.942,-13.079 1.109,-1.853 1.893,-4.224 0.247,-4.992 0,0 -3.735,-1.427 -6.448,0 l 0.965,2.621 c 0.199,0.541 0.208,1.133 0.024,1.678 l -2.744,8.137"
           sodipodi:nodetypes="ccccccc" />
        <path
           sodipodi:nodetypes="ccccc"
           inkscape:connector-curvature="0"
           id="path4496"
           style="fill:none;stroke:#000000;stroke-width:2;stroke-linecap:round;stroke-linejoin:round;stroke-miterlimit:10;stroke-opacity:1;stroke-dasharray:none"
           d="M 1.8687822,3.6365492 C 0.79078216,3.1100492 0.98587696,1.998451 0.12583134,0.00447415 -2.450972,-1.347622 -9.971,-0.076 -11.629,0.801 c -2.862,1.514 -5.753,0 -5.753,0 0,0 4.074797,5.4483338 3.891492,7.4270965" />
      </g>
      <g
         id="g288"
         transform="matrix(1.25,0,0,-1.25,69.53938,50.227535)">
        <path
           d="m 0,0 c 0,0 -2.078,-2.359 -1.972,-6.844 0.058,-2.107 -0.339,-4.205 -1.063,-6.186 -0.851,-2.291 -2.069,-4.949 -3.5,-6.216 l -0.357,-1.479 c 0,0 3.325,-1.595 7.24,0 0,0 0.332,1.658 0.864,3.023 0.403,1.037 0.823,2.064 1.18,3.119 0.587,1.731 1.477,4.153 2.074,5.585 l 2.508,-6.244 c 0.245,-0.608 0.317,-1.272 0.211,-1.918 l -0.606,-3.675 c 0,0 2.612,-1.126 6.123,1.07 0.709,0.443 1.119,1.244 1.119,2.08 0,0.311 -0.058,0.62 -0.173,0.909 l -2.374,6.037 c -0.849,2.161 -1.161,4.496 -0.909,6.805 l 0.713,6.511 0,0.837 0,3.84 c 0,7.665 -6.214,13.88 -13.88,13.88 -1.878,0 -3.747,-0.204 -5.586,-0.582 -3.03,-0.623 -8.568,-2.13 -11.714,-0.168 -1.947,1.214 -4.856,0.735 -6.757,0.208 -1.346,-0.373 -2.773,-0.271 -4.052,0.287 l -2.138,0.932 c -6.364,1.755 -8.558,-2.049 -8.558,-2.049 l -1.75,-2.832 c -0.629,-1.017 -0.962,-2.19 -0.962,-3.387 0,-0.772 0.139,-1.54 0.411,-2.263 l 0.033,-0.087 c 0.351,-0.936 0.531,-1.927 0.531,-2.927 l 0,-1.177 0,-26.698 c 0,-1.008 0.817,-1.825 1.825,-1.825 0.975,0 1.777,0.766 1.823,1.74 l 0.678,14.494 0.48,7.395 c 3.183,0.208 3.533,3.852 3.533,3.852 l 2.578,0 c 0,0 2.315,-5.588 5.629,-7.704"
           style="fill:none;stroke:#000000;stroke-width:2;stroke-linecap:round;stroke-linejoin:round;stroke-miterlimit:10;stroke-opacity:1;stroke-dasharray:none"
           id="path290"
           inkscape:connector-curvature="0" />
      </g>
      <g
         id="g292"
         transform="matrix(1.25,0,0,-1.25,42.28163,23.95366)">
        <path
           d="M 0,0 C 0.628,-1.068 1.812,-3.72 1.632,-4.981 1.38,-6.757 -3.32,-9.786 -4.312,-11.17 c -0.993,-1.384 -3.5,-3.578 -3.656,1.802 -0.028,0.961 0.067,1.962 0.243,2.958"
           style="fill:none;stroke:#000000;stroke-width:2;stroke-linecap:round;stroke-linejoin:round;stroke-miterlimit:10;stroke-opacity:1;stroke-dasharray:none"
           id="path294"
           inkscape:connector-curvature="0" />
      </g>
      <g
         id="g296"
         transform="matrix(1.25,0,0,-1.25,24.335505,32.372285)">
        <path
           d="M 0,0 C 1.085,0.501 2.205,0.389 2.501,-0.252 2.797,-0.893 2.157,-1.819 1.072,-2.32 -0.014,-2.822 -1.133,-2.709 -1.43,-2.068 -1.726,-1.427 -1.085,-0.501 0,0"
           style="fill:#000000;fill-opacity:1;fill-rule:nonzero;stroke:none"
           id="path298"
           inkscape:connector-curvature="0" />
      </g>
      <g
         id="g300"
         transform="matrix(1.25,0,0,-1.25,15.359005,52.046285)">
        <path
           d="M 0,0 C 0,0 -1.508,-2.537 -4.287,-2.537"
           style="fill:none;stroke:#000000;stroke-width:2;stroke-linecap:round;stroke-linejoin:round;stroke-miterlimit:10;stroke-opacity:1;stroke-dasharray:none"
           id="path302"
           inkscape:connector-curvature="0" />
      </g>
      <g
         id="g304"
         transform="matrix(1.25,0,0,-1.25,81.759755,33.82241)">
        <path
           d="M 0,0 C 0,0 6.592,-1.882 6.592,-10.305"
           style="fill:none;stroke:#000000;stroke-width:2;stroke-linecap:round;stroke-linejoin:round;stroke-miterlimit:10;stroke-opacity:1;stroke-dasharray:none"
           id="path306"
           inkscape:connector-curvature="0" />
      </g>
    </g>
  </g>
</svg>
