<?xml version="1.0" encoding="UTF-8" standalone="no"?>
<!-- Created with Inkscape (http://www.inkscape.org/) -->

<svg
   xmlns:dc="http://purl.org/dc/elements/1.1/"
   xmlns:cc="http://creativecommons.org/ns#"
   xmlns:rdf="http://www.w3.org/1999/02/22-rdf-syntax-ns#"
   xmlns:svg="http://www.w3.org/2000/svg"
   xmlns="http://www.w3.org/2000/svg"
   xmlns:sodipodi="http://sodipodi.sourceforge.net/DTD/sodipodi-0.dtd"
   xmlns:inkscape="http://www.inkscape.org/namespaces/inkscape"
   width="100"
   height="100"
   id="svg3314"
   version="1.1"
   inkscape:version="0.48.4 r9939"
   sodipodi:docname="icon29_boat.svg">
  <defs
     id="defs3316" />
  <sodipodi:namedview
     id="base"
     pagecolor="#ffffff"
     bordercolor="#666666"
     borderopacity="1.0"
     inkscape:pageopacity="0.0"
     inkscape:pageshadow="2"
     inkscape:zoom="3.959798"
     inkscape:cx="75.849011"
     inkscape:cy="47.239335"
     inkscape:document-units="px"
     inkscape:current-layer="layer1"
     showgrid="false"
     inkscape:window-width="1307"
     inkscape:window-height="744"
     inkscape:window-x="59"
     inkscape:window-y="24"
     inkscape:window-maximized="1" />
  <metadata
     id="metadata3319">
    <rdf:RDF>
      <cc:Work
         rdf:about="">
        <dc:format>image/svg+xml</dc:format>
        <dc:type
           rdf:resource="http://purl.org/dc/dcmitype/StillImage" />
        <dc:title></dc:title>
      </cc:Work>
    </rdf:RDF>
  </metadata>
  <g
     inkscape:label="Layer 1"
     inkscape:groupmode="layer"
     id="layer1">
    <g
       id="g102"
       transform="matrix(1.25,0,0,-1.25,9.99888,32.031185)" />
    <path
       id="path122"
       style="fill:#008000;stroke:#000000;stroke-width:2.50000000000000000;stroke-linecap:round;stroke-linejoin:round;stroke-miterlimit:10;stroke-opacity:1;stroke-dasharray:none"
       d="m 31.50238,73.33256 -10.10375,0 0,-30.10375 10.10375,0 0,30.10375 z m 23.55125,0 -10.10375,0 0,-30.10375 10.10375,0 0,30.10375 z m 23.55125,0 -10.10375,0 0,-30.10375 10.10375,0 0,30.10375 z m 7.8125,4.94875 -72.83125,0 0,5.85875 72.83125,0 0,-5.85875 z" />
    <g
       id="g124"
       transform="matrix(1.25,0,0,-1.25,9.99888,32.031185)">
      <path
         id="path126"
         style="fill:none;stroke:#000000;stroke-width:2;stroke-linecap:round;stroke-linejoin:round;stroke-miterlimit:10;stroke-opacity:1;stroke-dasharray:none"
         d="m 0,0 64,0 m -44.0892,-8.9581 -13.5,0 0,3.958 13.5,0 0,-3.958 z m 0,-28.042 -13.5,0 0,3.958 13.5,0 0,-3.958 z m 18.841,28.042 -13.5,0 0,3.958 13.5,0 0,-3.958 z m 0,-28.042 -13.5,0 0,3.958 13.5,0 0,-3.958 z m 18.841,28.042 -13.5,0 0,3.958 13.5,0 0,-3.958 z m 0,-28.042 -13.5,0 0,3.958 13.5,0 0,-3.958 z M 0,0 32,17.625 64,0 64,-5 0,-5 0,0 z m 64.0018,-46.3751 -64,0 0,4.687 64,0 0,-4.687 z" />
    </g>
  </g>
</svg>
