<?xml version="1.0" encoding="UTF-8" standalone="no"?>
<!-- Created with Inkscape (http://www.inkscape.org/) -->

<svg
   xmlns:dc="http://purl.org/dc/elements/1.1/"
   xmlns:cc="http://creativecommons.org/ns#"
   xmlns:rdf="http://www.w3.org/1999/02/22-rdf-syntax-ns#"
   xmlns:svg="http://www.w3.org/2000/svg"
   xmlns="http://www.w3.org/2000/svg"
   xmlns:sodipodi="http://sodipodi.sourceforge.net/DTD/sodipodi-0.dtd"
   xmlns:inkscape="http://www.inkscape.org/namespaces/inkscape"
   width="100"
   height="100"
   id="svg3314"
   version="1.1"
   inkscape:version="0.48.4 r9939"
   sodipodi:docname="icon28_boomerang.svg">
  <defs
     id="defs3316" />
  <sodipodi:namedview
     id="base"
     pagecolor="#ffffff"
     bordercolor="#666666"
     borderopacity="1.0"
     inkscape:pageopacity="0.0"
     inkscape:pageshadow="2"
     inkscape:zoom="3.959798"
     inkscape:cx="75.849011"
     inkscape:cy="47.239335"
     inkscape:document-units="px"
     inkscape:current-layer="layer1"
     showgrid="false"
     inkscape:window-width="1307"
     inkscape:window-height="744"
     inkscape:window-x="59"
     inkscape:window-y="24"
     inkscape:window-maximized="1" />
  <metadata
     id="metadata3319">
    <rdf:RDF>
      <cc:Work
         rdf:about="">
        <dc:format>image/svg+xml</dc:format>
        <dc:type
           rdf:resource="http://purl.org/dc/dcmitype/StillImage" />
        <dc:title></dc:title>
      </cc:Work>
    </rdf:RDF>
  </metadata>
  <g
     inkscape:label="Layer 1"
     inkscape:groupmode="layer"
     id="layer1">
    <g
       transform="matrix(1.0101715,0,0,-1.0101715,21.91813,25.867424)"
       id="g5554" />
    <g
       transform="matrix(1.0101715,0,0,-1.0101715,30.637729,25.942379)"
       id="g5558" />
    <g
       transform="matrix(1.0101715,0,0,-1.0101715,74.214709,76.244778)"
       id="g5562" />
    <g
       transform="matrix(1.0101715,0,0,-1.0101715,74.397752,67.607004)"
       id="g5566" />
    <g
       transform="matrix(1.0101715,0,0,-1.0101715,72.133251,40.288936)"
       id="g5570" />
    <g
       transform="matrix(1.0101715,0,0,-1.0101715,-265.49929,220.62547)"
       id="g3201">
      <g
         transform="translate(348.1353,145.5184)"
         id="g56">
        <path
           inkscape:connector-curvature="0"
           id="path58"
           style="fill:none;stroke:#000000;stroke-width:2;stroke-linecap:round;stroke-linejoin:round;stroke-miterlimit:10;stroke-opacity:1;stroke-dasharray:none"
           d="m 0,0 c -1.807,0.088 -3.206,1.617 -3.129,3.424 0.42,9.857 1.064,39.055 -5.621,45.741 -6.749,6.748 -37.758,7.355 -47.775,7.373 -1.757,0.003 -3.198,1.382 -3.284,3.137 -0.09,1.846 1.348,3.405 3.195,3.459 11.28,0.329 47.531,0.773 55.069,-6.764 C 5.996,48.828 4.199,13.89 3.444,3.056 3.32,1.269 1.79,-0.087 0,0 z" />
      </g>
      <g
         transform="translate(300.3579,208.7967)"
         id="g60">
        <path
           inkscape:connector-curvature="0"
           id="path62"
           style="fill:none;stroke:#000000;stroke-width:2;stroke-linecap:round;stroke-linejoin:round;stroke-miterlimit:10;stroke-opacity:1;stroke-dasharray:none"
           d="M 0,0 0,-6.884" />
      </g>
      <g
         transform="translate(308.9897,208.7225)"
         id="g64">
        <path
           inkscape:connector-curvature="0"
           id="path66"
           style="fill:none;stroke:#000000;stroke-width:2;stroke-linecap:round;stroke-linejoin:round;stroke-miterlimit:10;stroke-opacity:1;stroke-dasharray:none"
           d="M 0,0 0,-7.172" />
      </g>
      <g
         transform="translate(352.1279,158.9266)"
         id="g68">
        <path
           inkscape:connector-curvature="0"
           id="path70"
           style="fill:none;stroke:#000000;stroke-width:2;stroke-linecap:round;stroke-linejoin:round;stroke-miterlimit:10;stroke-opacity:1;stroke-dasharray:none"
           d="M 0,0 -6.883,0" />
      </g>
      <g
         transform="translate(352.3091,167.4774)"
         id="g72">
        <path
           inkscape:connector-curvature="0"
           id="path74"
           style="fill:none;stroke:#000000;stroke-width:2;stroke-linecap:round;stroke-linejoin:round;stroke-miterlimit:10;stroke-opacity:1;stroke-dasharray:none"
           d="M 0,0 -7.131,0" />
      </g>
      <g
         transform="translate(350.0674,194.5204)"
         id="g76">
        <path
           inkscape:connector-curvature="0"
           id="path78"
           style="fill:none;stroke:#000000;stroke-width:2;stroke-linecap:round;stroke-linejoin:round;stroke-miterlimit:10;stroke-opacity:1;stroke-dasharray:none"
           d="M 0,0 -8.491,-3.351" />
      </g>
      <g
         transform="translate(339.2222,205.3661)"
         id="g80">
        <path
           inkscape:connector-curvature="0"
           id="path82"
           style="fill:none;stroke:#000000;stroke-width:2;stroke-linecap:round;stroke-linejoin:round;stroke-miterlimit:10;stroke-opacity:1;stroke-dasharray:none"
           d="M 0,0 -3.351,-8.491" />
      </g>
    </g>
    <g
       transform="matrix(1.0101715,0,0,-1.0101715,86.177065,73.626925)"
       id="g5550">
      <path
         inkscape:connector-curvature="0"
         id="path5552"
         style="fill:none;stroke:#000000;stroke-width:2;stroke-linecap:round;stroke-linejoin:round;stroke-miterlimit:10;stroke-opacity:1;stroke-dasharray:none"
         d="m 0,0 c -1.807,0.088 -3.206,1.617 -3.129,3.424 0.42,9.857 1.064,39.055 -5.621,45.741 -6.749,6.748 -37.758,7.355 -47.775,7.373 -1.757,0.003 -3.198,1.382 -3.284,3.137 -0.09,1.846 1.348,3.405 3.195,3.459 11.28,0.329 47.531,0.773 55.069,-6.764 C 5.996,48.828 4.199,13.89 3.444,3.056 3.32,1.269 1.79,-0.087 0,0 z" />
    </g>
    <g
       transform="matrix(1.0101715,0,0,-1.0101715,77.173306,13.170484)"
       id="g5574"
       style="fill:#008000">
      <path
         inkscape:connector-curvature="0"
         id="path5576"
         style="fill:#008000;stroke:#000000;stroke-width:2;stroke-linecap:round;stroke-linejoin:round;stroke-miterlimit:10;stroke-opacity:1;stroke-dasharray:none"
         d="M -3.351,-8.491 0,0 c 6.2403236,-1.3181335 9.9378481,-4.8612163 10.8452,-10.8457 l -8.491,-3.351 c -0.7484892,3.516442 -3.3601408,4.4244562 -5.7052,5.7057 z m 9.3736997,-37.9485 6.8830003,0 0.1812,8.5508 -7.1310003,0 z M -30.2325,-3.8155996 l 0,7.172 -8.6318,0.0742 0,-6.884 z" />
    </g>
    <g
       id="g5650"
       transform="matrix(1.0101715,0,0,-1.0101715,-281.66173,237.29298)">
      <g
         id="g5652"
         transform="translate(348.1353,145.5184)">
        <path
           d="m 0,0 c -1.807,0.088 -3.206,1.617 -3.129,3.424 0.42,9.857 1.064,39.055 -5.621,45.741 -6.749,6.748 -37.758,7.355 -47.775,7.373 -1.757,0.003 -3.198,1.382 -3.284,3.137 -0.09,1.846 1.348,3.405 3.195,3.459 11.28,0.329 47.531,0.773 55.069,-6.764 C 5.996,48.828 4.199,13.89 3.444,3.056 3.32,1.269 1.79,-0.087 0,0 z"
           style="fill:none;stroke:#000000;stroke-width:2;stroke-linecap:round;stroke-linejoin:round;stroke-miterlimit:10;stroke-opacity:1;stroke-dasharray:none"
           id="path5654"
           inkscape:connector-curvature="0" />
      </g>
      <g
         id="g5656"
         transform="translate(300.3579,208.7967)">
        <path
           d="M 0,0 0,-6.884"
           style="fill:none;stroke:#000000;stroke-width:2;stroke-linecap:round;stroke-linejoin:round;stroke-miterlimit:10;stroke-opacity:1;stroke-dasharray:none"
           id="path5658"
           inkscape:connector-curvature="0" />
      </g>
      <g
         id="g5660"
         transform="translate(308.9897,208.7225)">
        <path
           d="M 0,0 0,-7.172"
           style="fill:none;stroke:#000000;stroke-width:2;stroke-linecap:round;stroke-linejoin:round;stroke-miterlimit:10;stroke-opacity:1;stroke-dasharray:none"
           id="path5662"
           inkscape:connector-curvature="0" />
      </g>
      <g
         id="g5664"
         transform="translate(352.1279,158.9266)">
        <path
           d="M 0,0 -6.883,0"
           style="fill:none;stroke:#000000;stroke-width:2;stroke-linecap:round;stroke-linejoin:round;stroke-miterlimit:10;stroke-opacity:1;stroke-dasharray:none"
           id="path5666"
           inkscape:connector-curvature="0" />
      </g>
      <g
         id="g5668"
         transform="translate(352.3091,167.4774)">
        <path
           d="M 0,0 -7.131,0"
           style="fill:none;stroke:#000000;stroke-width:2;stroke-linecap:round;stroke-linejoin:round;stroke-miterlimit:10;stroke-opacity:1;stroke-dasharray:none"
           id="path5670"
           inkscape:connector-curvature="0" />
      </g>
      <g
         id="g5672"
         transform="translate(350.0674,194.5204)">
        <path
           d="M 0,0 -8.491,-3.351"
           style="fill:none;stroke:#000000;stroke-width:2;stroke-linecap:round;stroke-linejoin:round;stroke-miterlimit:10;stroke-opacity:1;stroke-dasharray:none"
           id="path5674"
           inkscape:connector-curvature="0" />
      </g>
      <g
         id="g5676"
         transform="translate(339.2222,205.3661)">
        <path
           d="M 0,0 -3.351,-8.491"
           style="fill:none;stroke:#000000;stroke-width:2;stroke-linecap:round;stroke-linejoin:round;stroke-miterlimit:10;stroke-opacity:1;stroke-dasharray:none"
           id="path5678"
           inkscape:connector-curvature="0" />
      </g>
    </g>
    <g
       id="g5680"
       transform="matrix(1.0101715,0,0,-1.0101715,70.014625,90.294442)">
      <path
         d="m 0,0 c -1.807,0.088 -3.206,1.617 -3.129,3.424 0.42,9.857 1.064,39.055 -5.621,45.741 -6.749,6.748 -37.758,7.355 -47.775,7.373 -1.757,0.003 -3.198,1.382 -3.284,3.137 -0.09,1.846 1.348,3.405 3.195,3.459 11.28,0.329 47.531,0.773 55.069,-6.764 C 5.996,48.828 4.199,13.89 3.444,3.056 3.32,1.269 1.79,-0.087 0,0 z"
         style="fill:none;stroke:#000000;stroke-width:2;stroke-linecap:round;stroke-linejoin:round;stroke-miterlimit:10;stroke-opacity:1;stroke-dasharray:none"
         id="path5682"
         inkscape:connector-curvature="0" />
    </g>
    <g
       id="g5684"
       transform="matrix(1.0101715,0,0,-1.0101715,61.010866,29.838001)"
       style="fill:#008000">
      <path
         d="M -3.351,-8.491 0,0 c 6.2403236,-1.3181335 9.9378481,-4.8612163 10.8452,-10.8457 l -8.491,-3.351 c -0.7484892,3.516442 -3.3601408,4.4244562 -5.7052,5.7057 z m 9.3736997,-37.9485 6.8830003,0 0.1812,8.5508 -7.1310003,0 z M -30.2325,-3.8155996 l 0,7.172 -8.6318,0.0742 0,-6.884 z"
         style="fill:#008000;stroke:#000000;stroke-width:2;stroke-linecap:round;stroke-linejoin:round;stroke-miterlimit:10;stroke-opacity:1;stroke-dasharray:none"
         id="path5686"
         inkscape:connector-curvature="0" />
    </g>
  </g>
</svg>
