<?xml version="1.0" encoding="UTF-8" standalone="no"?>
<!-- Created with Inkscape (http://www.inkscape.org/) -->

<svg
   xmlns:dc="http://purl.org/dc/elements/1.1/"
   xmlns:cc="http://creativecommons.org/ns#"
   xmlns:rdf="http://www.w3.org/1999/02/22-rdf-syntax-ns#"
   xmlns:svg="http://www.w3.org/2000/svg"
   xmlns="http://www.w3.org/2000/svg"
   xmlns:sodipodi="http://sodipodi.sourceforge.net/DTD/sodipodi-0.dtd"
   xmlns:inkscape="http://www.inkscape.org/namespaces/inkscape"
   width="100"
   height="100"
   id="svg3314"
   version="1.1"
   inkscape:version="0.48.4 r9939"
   sodipodi:docname="icon12_dog.svg">
  <defs
     id="defs3316" />
  <sodipodi:namedview
     id="base"
     pagecolor="#ffffff"
     bordercolor="#666666"
     borderopacity="1.0"
     inkscape:pageopacity="0.0"
     inkscape:pageshadow="2"
     inkscape:zoom="3.959798"
     inkscape:cx="37.577829"
     inkscape:cy="48.438827"
     inkscape:document-units="px"
     inkscape:current-layer="layer1"
     showgrid="false"
     inkscape:window-width="1307"
     inkscape:window-height="744"
     inkscape:window-x="59"
     inkscape:window-y="24"
     inkscape:window-maximized="1" />
  <metadata
     id="metadata3319">
    <rdf:RDF>
      <cc:Work
         rdf:about="">
        <dc:format>image/svg+xml</dc:format>
        <dc:type
           rdf:resource="http://purl.org/dc/dcmitype/StillImage" />
        <dc:title></dc:title>
      </cc:Work>
    </rdf:RDF>
  </metadata>
  <g
     inkscape:label="Layer 1"
     inkscape:groupmode="layer"
     id="layer1">
    <g
       id="g4386">
      <path
         inkscape:connector-curvature="0"
         id="path582"
         style="fill:none;stroke:#000000;stroke-width:2.5;stroke-linecap:round;stroke-linejoin:round;stroke-miterlimit:10;stroke-opacity:1;stroke-dasharray:none"
         d="m 43.03268,60.336875 c 2.62,-2.44375 6.2575,-3.8125 10.2075,-3.40125 5.95125,0.61875 10.80875,5.44125 11.465,11.38875 0.8625,7.8025 -5.22375,14.4075 -12.8525,14.4075 l 9.82125,0 c 2.8275,0 5.12,2.29125 5.12,5.11875 l -39.9725,0 c 0,0 -7.78875,-1.74375 -13.42,-13.6025 -5.30125,-11.16625 2.75625,-18.9125 -2.5175,-24.22375 -0.72,-0.725 -1.005,-1.77875 -0.8375,-2.7875 0.4875,-2.93 4.37125,-3.835 5.98125,-1.34 0.5,0.77625 0.92625,1.69375 1.205,2.7725 1.38,5.3225 -5.6625,24.4175 9.58875,29.34625 0,-18.365 8.45,-37.7075 33.25125,-37.7075 -1.55625,-26.885 19.52625,-28.15875 19.52625,-28.15875 l -2.82875,5.66125 c 0,0 4.38625,-0.425 7.49875,3.1825 3.1125,3.60875 -0.1475,10.4 5.73125,12.66375 0,0 -2.3325,7.715 -9.58125,7.64 -1.25375,-0.01375 -2.39125,0.7325 -2.8475,1.89875 -0.27875,0.7125 -0.275,1.4975 0.0087,2.2075 1.44125,3.61 5.29375,15.565 -3.64,22.355 l 3.96125,14.97375 1.38875,0 c 2.82875,0 5.12,2.29125 5.12,5.11875 l -6.8725,0 c -2.05875,0 -3.97125,-1.07125 -5.0475,-2.82625 l -5.20125,-8.4925 -2.54625,-8.06625" />
      <path
         inkscape:connector-curvature="0"
         id="path586"
         style="fill:none;stroke:#000000;stroke-width:2.5;stroke-linecap:round;stroke-linejoin:round;stroke-miterlimit:10;stroke-opacity:1;stroke-dasharray:none"
         d="m 76.37443,28.019375 1.035,1.82375" />
      <path
         inkscape:connector-curvature="0"
         id="path590"
         style="fill:none;stroke:#000000;stroke-width:2.5;stroke-linecap:round;stroke-linejoin:round;stroke-miterlimit:10;stroke-opacity:1;stroke-dasharray:none"
         d="m 89.99993,33.657125 c 0,0 -3.45,2.72375 -7.825,0.61375" />
    </g>
  </g>
</svg>
