<?xml version="1.0" encoding="UTF-8" standalone="no"?>
<!-- Created with Inkscape (http://www.inkscape.org/) -->

<svg
   xmlns:dc="http://purl.org/dc/elements/1.1/"
   xmlns:cc="http://creativecommons.org/ns#"
   xmlns:rdf="http://www.w3.org/1999/02/22-rdf-syntax-ns#"
   xmlns:svg="http://www.w3.org/2000/svg"
   xmlns="http://www.w3.org/2000/svg"
   xmlns:sodipodi="http://sodipodi.sourceforge.net/DTD/sodipodi-0.dtd"
   xmlns:inkscape="http://www.inkscape.org/namespaces/inkscape"
   width="100"
   height="100"
   id="svg3314"
   version="1.1"
   inkscape:version="0.48.4 r9939"
   sodipodi:docname="icon18_leaf.svg">
  <defs
     id="defs3316" />
  <sodipodi:namedview
     id="base"
     pagecolor="#ffffff"
     bordercolor="#666666"
     borderopacity="1.0"
     inkscape:pageopacity="0.0"
     inkscape:pageshadow="2"
     inkscape:zoom="5.6"
     inkscape:cx="50.770812"
     inkscape:cy="50.357144"
     inkscape:document-units="px"
     inkscape:current-layer="layer1"
     showgrid="false"
     inkscape:window-width="1307"
     inkscape:window-height="744"
     inkscape:window-x="59"
     inkscape:window-y="24"
     inkscape:window-maximized="1" />
  <metadata
     id="metadata3319">
    <rdf:RDF>
      <cc:Work
         rdf:about="">
        <dc:format>image/svg+xml</dc:format>
        <dc:type
           rdf:resource="http://purl.org/dc/dcmitype/StillImage" />
        <dc:title></dc:title>
      </cc:Work>
    </rdf:RDF>
  </metadata>
  <g
     inkscape:label="Layer 1"
     inkscape:groupmode="layer"
     id="layer1">
    <g
       transform="matrix(1.25,0,0,-1.25,77.42603,41.794565)"
       id="g410" />
    <g
       transform="matrix(1.25,0,0,-1.25,57.69828,32.891315)"
       id="g414" />
    <g
       transform="matrix(1.25,0,0,-1.25,88.10478,21.048065)"
       id="g418" />
    <g
       transform="matrix(1.25,0,0,-1.25,72.391905,36.760315)"
       id="g422" />
    <g
       transform="matrix(1.25,0,0,-1.25,63.23903,27.607565)"
       id="g426">
      <path
         id="path428"
         style="fill:#008000;stroke:#000000;stroke-width:2;stroke-linecap:round;stroke-linejoin:round;stroke-miterlimit:10;stroke-opacity:1;stroke-dasharray:none"
         d="m 0,0 12.57,12.57 m -5.2477,-19.8922 12.57,12.57 m -8.5427,-16.5974 -15.377,15.377 -3.288,-3.288 5.647,-9.73 9.73,-5.647 3.288,3.288 z m 8.543,16.5972 c 2.021,2.022 2.021,5.3 0,7.322 -2.022,2.022 -5.301,2.022 -7.322,0 -2.023,-2.022 -2.023,-5.3 0,-7.322 2.021,-2.022 5.3,-2.022 7.322,0 z" />
    </g>
    <g
       transform="matrix(1.25,0,0,-1.25,10.00053,90.000065)"
       id="g430">
      <path
         id="path432"
         style="fill:none;stroke:#000000;stroke-width:2;stroke-linecap:round;stroke-linejoin:round;stroke-miterlimit:10;stroke-opacity:1;stroke-dasharray:none"
         d="M 0,0 22.027,22.028 M 38.1582,45.687 3.9052,15.621 2e-4,0 l 15.62,3.905 30.066,34.254" />
    </g>
  </g>
</svg>
