<?xml version="1.0" encoding="UTF-8" standalone="no"?>
<!-- Created with Inkscape (http://www.inkscape.org/) -->

<svg
   xmlns:dc="http://purl.org/dc/elements/1.1/"
   xmlns:cc="http://creativecommons.org/ns#"
   xmlns:rdf="http://www.w3.org/1999/02/22-rdf-syntax-ns#"
   xmlns:svg="http://www.w3.org/2000/svg"
   xmlns="http://www.w3.org/2000/svg"
   xmlns:sodipodi="http://sodipodi.sourceforge.net/DTD/sodipodi-0.dtd"
   xmlns:inkscape="http://www.inkscape.org/namespaces/inkscape"
   id="svg2"
   version="1.1"
   inkscape:version="0.48.4 r9939"
   width="483.80875"
   height="281.13375"
   xml:space="preserve"
   sodipodi:docname="icons-26-32.svg"><metadata
     id="metadata8"><rdf:RDF><cc:Work
         rdf:about=""><dc:format>image/svg+xml</dc:format><dc:type
           rdf:resource="http://purl.org/dc/dcmitype/StillImage" /><dc:title /></cc:Work></rdf:RDF></metadata><defs
     id="defs6"><clipPath
       clipPathUnits="userSpaceOnUse"
       id="clipPath16"><path
         d="m 0,224.907 387.047,0 L 387.047,0 0,0 0,224.907 z"
         id="path18" /></clipPath></defs><sodipodi:namedview
     pagecolor="#ffffff"
     bordercolor="#666666"
     borderopacity="1"
     objecttolerance="10"
     gridtolerance="10"
     guidetolerance="10"
     inkscape:pageopacity="0"
     inkscape:pageshadow="2"
     inkscape:window-width="1307"
     inkscape:window-height="744"
     id="namedview4"
     showgrid="false"
     inkscape:zoom="1.4261834"
     inkscape:cx="212.36562"
     inkscape:cy="143.87127"
     inkscape:window-x="59"
     inkscape:window-y="24"
     inkscape:window-maximized="1"
     inkscape:current-layer="g10" /><g
     id="g10"
     inkscape:groupmode="layer"
     inkscape:label="icons-26-32"
     transform="matrix(1.25,0,0,-1.25,0,281.13375)"><g
       id="g3179"><g
         transform="translate(77.4165,203.8788)"
         id="g20"><path
           inkscape:connector-curvature="0"
           id="path22"
           style="fill:none;stroke:#000000;stroke-width:2;stroke-linecap:round;stroke-linejoin:round;stroke-miterlimit:10;stroke-opacity:1;stroke-dasharray:none"
           d="m 0,0 -36.509,0 c -1.457,0 -2.639,1.182 -2.639,2.639 0,1.458 1.182,2.639 2.639,2.639 L 0,5.278 C 1.458,5.278 2.639,4.097 2.639,2.639 2.639,1.182 1.458,0 0,0 z" /></g><g
         transform="translate(59.1621,177.1571)"
         id="g24"><path
           inkscape:connector-curvature="0"
           id="path26"
           style="fill:none;stroke:#000000;stroke-width:2;stroke-linecap:round;stroke-linejoin:round;stroke-miterlimit:10;stroke-opacity:1;stroke-dasharray:none"
           d="m 0,0 0,0 c 0,0 -16.902,3.169 -16.902,19.542 l 0,7.18 33.804,0 0,-7.18 C 16.902,3.169 0,0 0,0 z" /></g><g
         transform="translate(47.6025,190.2406)"
         id="g28"><path
           inkscape:connector-curvature="0"
           id="path30"
           style="fill:none;stroke:#000000;stroke-width:2;stroke-linecap:round;stroke-linejoin:round;stroke-miterlimit:10;stroke-opacity:1;stroke-dasharray:none"
           d="m 0,0 c 2.833,-6.163 9.352,-8.386 11.575,-8.979 2.238,0.58 8.756,2.763 11.568,8.979 L 0,0 z" /></g><g
         transform="translate(77.4165,150.4354)"
         id="g32"><path
           inkscape:connector-curvature="0"
           id="path34"
           style="fill:none;stroke:#000000;stroke-width:2;stroke-linecap:round;stroke-linejoin:round;stroke-miterlimit:10;stroke-opacity:1;stroke-dasharray:none"
           d="m 0,0 -36.509,0 c -1.457,0 -2.639,-1.182 -2.639,-2.639 0,-1.458 1.182,-2.639 2.639,-2.639 l 36.509,0 c 1.458,0 2.639,1.181 2.639,2.639 C 2.639,-1.182 1.458,0 0,0 z" /></g><g
         transform="translate(59.1621,177.1571)"
         id="g36"><path
           inkscape:connector-curvature="0"
           id="path38"
           style="fill:none;stroke:#000000;stroke-width:2;stroke-linecap:round;stroke-linejoin:round;stroke-miterlimit:10;stroke-opacity:1;stroke-dasharray:none"
           d="m 0,0 0,0 c 0,0 -16.902,-3.169 -16.902,-19.542 l 0,-7.18 33.804,0 0,7.18 C 16.902,-3.169 0,0 0,0 z" /></g><g
         transform="translate(48.4614,165.6571)"
         id="g40"><path
           inkscape:connector-curvature="0"
           id="path42"
           style="fill:none;stroke:#000000;stroke-width:2;stroke-linecap:round;stroke-linejoin:round;stroke-miterlimit:10;stroke-opacity:1;stroke-dasharray:none"
           d="m 0,0 c -1.316,-2.092 -2.202,-4.726 -2.202,-8.042 l 0,-3.18 25.805,0 0,3.18 c 0,3.316 -0.886,5.95 -2.202,8.042 L 0,0 z" /></g></g><g
       id="g3193"><g
         transform="translate(157.7422,185.2147)"
         id="g44"><path
           inkscape:connector-curvature="0"
           id="path46"
           style="fill:none;stroke:#000000;stroke-width:2;stroke-linecap:round;stroke-linejoin:round;stroke-miterlimit:10;stroke-opacity:1;stroke-dasharray:none"
           d="m 0,0 c 0,0 17.498,16.461 22.109,18.344 l 5.476,-5.475 c 0,0 -1.675,-1.987 -2.556,-4.111 C 24.147,6.633 20.849,6.857 18.966,4.975 18.182,4.19 14.509,-0.622 15.287,-8.032 15.287,-8.032 5.182,-8.015 0,0 z" /></g><g
         transform="translate(159.9497,187.2689)"
         id="g48"><path
           inkscape:connector-curvature="0"
           id="path50"
           style="fill:none;stroke:#000000;stroke-width:2;stroke-linecap:round;stroke-linejoin:round;stroke-miterlimit:10;stroke-opacity:1;stroke-dasharray:none"
           d="M 0,0 C 0.576,-0.717 4.817,-5.684 13.021,-6.691" /></g><g
         transform="translate(183.5376,195.5033)"
         id="g52"><path
           inkscape:connector-curvature="0"
           id="path54"
           style="fill:none;stroke:#000000;stroke-width:2;stroke-linecap:round;stroke-linejoin:round;stroke-miterlimit:10;stroke-opacity:1;stroke-dasharray:none"
           d="m 0,0 c 0,0 5.918,-3.448 7.835,-8.268 1.917,-4.818 13.317,-13.939 14.613,-15.234 1.296,-1.296 9.483,-10.831 10.882,-12.333 1.399,-1.503 5.596,-4.56 4.767,-6.115 l -2.487,-2.487 -6.115,-0.311 c 0,0 -3.264,9.897 -10.26,15.028 -6.995,5.13 -22.688,17.809 -24.869,25.279" /></g></g><g
       id="g3201"><g
         transform="translate(348.1353,145.5184)"
         id="g56"><path
           inkscape:connector-curvature="0"
           id="path58"
           style="fill:none;stroke:#000000;stroke-width:2;stroke-linecap:round;stroke-linejoin:round;stroke-miterlimit:10;stroke-opacity:1;stroke-dasharray:none"
           d="m 0,0 c -1.807,0.088 -3.206,1.617 -3.129,3.424 0.42,9.857 1.064,39.055 -5.621,45.741 -6.749,6.748 -37.758,7.355 -47.775,7.373 -1.757,0.003 -3.198,1.382 -3.284,3.137 -0.09,1.846 1.348,3.405 3.195,3.459 11.28,0.329 47.531,0.773 55.069,-6.764 C 5.996,48.828 4.199,13.89 3.444,3.056 3.32,1.269 1.79,-0.087 0,0 z" /></g><g
         transform="translate(300.3579,208.7967)"
         id="g60"><path
           inkscape:connector-curvature="0"
           id="path62"
           style="fill:none;stroke:#000000;stroke-width:2;stroke-linecap:round;stroke-linejoin:round;stroke-miterlimit:10;stroke-opacity:1;stroke-dasharray:none"
           d="M 0,0 0,-6.884" /></g><g
         transform="translate(308.9897,208.7225)"
         id="g64"><path
           inkscape:connector-curvature="0"
           id="path66"
           style="fill:none;stroke:#000000;stroke-width:2;stroke-linecap:round;stroke-linejoin:round;stroke-miterlimit:10;stroke-opacity:1;stroke-dasharray:none"
           d="M 0,0 0,-7.172" /></g><g
         transform="translate(352.1279,158.9266)"
         id="g68"><path
           inkscape:connector-curvature="0"
           id="path70"
           style="fill:none;stroke:#000000;stroke-width:2;stroke-linecap:round;stroke-linejoin:round;stroke-miterlimit:10;stroke-opacity:1;stroke-dasharray:none"
           d="M 0,0 -6.883,0" /></g><g
         transform="translate(352.3091,167.4774)"
         id="g72"><path
           inkscape:connector-curvature="0"
           id="path74"
           style="fill:none;stroke:#000000;stroke-width:2;stroke-linecap:round;stroke-linejoin:round;stroke-miterlimit:10;stroke-opacity:1;stroke-dasharray:none"
           d="M 0,0 -7.131,0" /></g><g
         transform="translate(350.0674,194.5204)"
         id="g76"><path
           inkscape:connector-curvature="0"
           id="path78"
           style="fill:none;stroke:#000000;stroke-width:2;stroke-linecap:round;stroke-linejoin:round;stroke-miterlimit:10;stroke-opacity:1;stroke-dasharray:none"
           d="M 0,0 -8.491,-3.351" /></g><g
         transform="translate(339.2222,205.3661)"
         id="g80"><path
           inkscape:connector-curvature="0"
           id="path82"
           style="fill:none;stroke:#000000;stroke-width:2;stroke-linecap:round;stroke-linejoin:round;stroke-miterlimit:10;stroke-opacity:1;stroke-dasharray:none"
           d="M 0,0 -3.351,-8.491" /></g></g><g
       id="g3246"><g
         transform="translate(84.1621,38.9071)"
         id="g84"><path
           inkscape:connector-curvature="0"
           id="path86"
           style="fill:none;stroke:#000000;stroke-width:2;stroke-linecap:round;stroke-linejoin:round;stroke-miterlimit:10;stroke-opacity:1;stroke-dasharray:none"
           d="M 0,0 C 0,0 -48.787,0 -57,20 L 7,20 0,0 z" /></g><path
         inkscape:connector-curvature="0"
         id="path88"
         style="fill:none;stroke:#000000;stroke-width:2;stroke-linecap:round;stroke-linejoin:round;stroke-miterlimit:10;stroke-opacity:1;stroke-dasharray:none"
         d="m 61.417,58.907 -4.509,0 0,44 4.509,0 0,-44 z" /><g
         transform="translate(61.4165,62.9071)"
         id="g90"><path
           inkscape:connector-curvature="0"
           id="path92"
           style="fill:none;stroke:#000000;stroke-width:2;stroke-linecap:round;stroke-linejoin:round;stroke-miterlimit:10;stroke-opacity:1;stroke-dasharray:none"
           d="M 0,0 23.333,0 C 23.333,20.47 0,34.25 0,34.25 0,34.25 12.167,12.375 0,0 z" /></g><g
         transform="translate(56.9077,97.1571)"
         id="g94"><path
           inkscape:connector-curvature="0"
           id="path96"
           style="fill:none;stroke:#000000;stroke-width:2;stroke-linecap:round;stroke-linejoin:round;stroke-miterlimit:10;stroke-opacity:1;stroke-dasharray:none"
           d="m 0,0 c 0,0 -24.283,-2.375 -25.908,-38.25 0,0 12.954,13 25.908,4 0,0 -10.842,20.75 0,34.25 z" /></g></g><g
       id="g3229"><path
         inkscape:connector-curvature="0"
         id="path98"
         style="fill:none;stroke:#000000;stroke-width:2;stroke-linecap:round;stroke-linejoin:round;stroke-miterlimit:10;stroke-opacity:1;stroke-dasharray:none"
         d="m 221.742,38.907 -64,0 0,4.687 64,0 0,-4.687 z" /><path
         inkscape:connector-curvature="0"
         id="path100"
         style="fill:none;stroke:#000000;stroke-width:2;stroke-linecap:round;stroke-linejoin:round;stroke-miterlimit:10;stroke-opacity:1;stroke-dasharray:none"
         d="m 218.875,48.282 -58.265,0 0,-4.687 58.265,0 0,4.687 z" /><g
         transform="translate(157.7402,85.2821)"
         id="g102"><path
           inkscape:connector-curvature="0"
           id="path104"
           style="fill:none;stroke:#000000;stroke-width:2;stroke-linecap:round;stroke-linejoin:round;stroke-miterlimit:10;stroke-opacity:1;stroke-dasharray:none"
           d="M 0,0 32,17.625 64,0 64,-5 0,-5 0,0 z" /></g><path
         inkscape:connector-curvature="0"
         id="path106"
         style="fill:none;stroke:#000000;stroke-width:2;stroke-linecap:round;stroke-linejoin:round;stroke-miterlimit:10;stroke-opacity:1;stroke-dasharray:none"
         d="m 215.333,48.282 -13.5,0 0,3.958 13.5,0 0,-3.958 z" /><path
         inkscape:connector-curvature="0"
         id="path108"
         style="fill:none;stroke:#000000;stroke-width:2;stroke-linecap:round;stroke-linejoin:round;stroke-miterlimit:10;stroke-opacity:1;stroke-dasharray:none"
         d="m 215.333,76.324 -13.5,0 0,3.958 13.5,0 0,-3.958 z" /><path
         inkscape:connector-curvature="0"
         id="path110"
         style="fill:none;stroke:#000000;stroke-width:2;stroke-linecap:round;stroke-linejoin:round;stroke-miterlimit:10;stroke-opacity:1;stroke-dasharray:none"
         d="m 212.625,52.241 -8.083,0 0,24.083 8.083,0 0,-24.083 z" /><path
         inkscape:connector-curvature="0"
         id="path112"
         style="fill:none;stroke:#000000;stroke-width:2;stroke-linecap:round;stroke-linejoin:round;stroke-miterlimit:10;stroke-opacity:1;stroke-dasharray:none"
         d="m 196.492,48.282 -13.5,0 0,3.958 13.5,0 0,-3.958 z" /><path
         inkscape:connector-curvature="0"
         id="path114"
         style="fill:none;stroke:#000000;stroke-width:2;stroke-linecap:round;stroke-linejoin:round;stroke-miterlimit:10;stroke-opacity:1;stroke-dasharray:none"
         d="m 196.492,76.324 -13.5,0 0,3.958 13.5,0 0,-3.958 z" /><path
         inkscape:connector-curvature="0"
         id="path116"
         style="fill:none;stroke:#000000;stroke-width:2;stroke-linecap:round;stroke-linejoin:round;stroke-miterlimit:10;stroke-opacity:1;stroke-dasharray:none"
         d="m 193.784,52.241 -8.083,0 0,24.083 8.083,0 0,-24.083 z" /><path
         inkscape:connector-curvature="0"
         id="path118"
         style="fill:none;stroke:#000000;stroke-width:2;stroke-linecap:round;stroke-linejoin:round;stroke-miterlimit:10;stroke-opacity:1;stroke-dasharray:none"
         d="m 177.651,48.282 -13.5,0 0,3.958 13.5,0 0,-3.958 z" /><path
         inkscape:connector-curvature="0"
         id="path120"
         style="fill:none;stroke:#000000;stroke-width:2;stroke-linecap:round;stroke-linejoin:round;stroke-miterlimit:10;stroke-opacity:1;stroke-dasharray:none"
         d="m 177.651,76.324 -13.5,0 0,3.958 13.5,0 0,-3.958 z" /><path
         inkscape:connector-curvature="0"
         id="path122"
         style="fill:none;stroke:#000000;stroke-width:2;stroke-linecap:round;stroke-linejoin:round;stroke-miterlimit:10;stroke-opacity:1;stroke-dasharray:none"
         d="m 174.943,52.241 -8.083,0 0,24.083 8.083,0 0,-24.083 z" /><g
         transform="translate(157.7402,85.2821)"
         id="g124"><path
           inkscape:connector-curvature="0"
           id="path126"
           style="fill:none;stroke:#000000;stroke-width:2;stroke-linecap:round;stroke-linejoin:round;stroke-miterlimit:10;stroke-opacity:1;stroke-dasharray:none"
           d="M 0,0 64,0" /></g></g><g
       id="g3217"><g
         transform="translate(340.8604,82.3695)"
         id="g128"><path
           inkscape:connector-curvature="0"
           id="path130"
           style="fill:none;stroke:#000000;stroke-width:2;stroke-linecap:round;stroke-linejoin:round;stroke-miterlimit:10;stroke-opacity:1;stroke-dasharray:none"
           d="m 0,0 c 0,11.776 -9.912,21.238 -21.849,20.497 -10.405,-0.646 -18.797,-9.245 -19.21,-19.662 -0.207,-5.23 1.543,-10.047 4.577,-13.779 3.997,-4.917 6.092,-11.108 6.092,-17.446 l 19.704,0 0,0.001 c 0,6.381 2.179,12.569 6.173,17.545 C -1.689,-9.327 0,-4.861 0,0 z" /></g><g
         transform="translate(320.3228,38.9071)"
         id="g132"><path
           inkscape:connector-curvature="0"
           id="path134"
           style="fill:none;stroke:#000000;stroke-width:2;stroke-linecap:round;stroke-linejoin:round;stroke-miterlimit:10;stroke-opacity:1;stroke-dasharray:none"
           d="m 0,0 0,0 c -3.987,0 -7.219,3.232 -7.219,7.218 l 0,5.855 14.437,0 0,-5.855 C 7.218,3.232 3.986,0 0,0 z" /></g><g
         transform="translate(327.541,47.433)"
         id="g136"><path
           inkscape:connector-curvature="0"
           id="path138"
           style="fill:none;stroke:#000000;stroke-width:2;stroke-linecap:round;stroke-linejoin:round;stroke-miterlimit:10;stroke-opacity:1;stroke-dasharray:none"
           d="M 0,0 3.288,0" /></g><g
         transform="translate(313.104,47.433)"
         id="g140"><path
           inkscape:connector-curvature="0"
           id="path142"
           style="fill:none;stroke:#000000;stroke-width:2;stroke-linecap:round;stroke-linejoin:round;stroke-miterlimit:10;stroke-opacity:1;stroke-dasharray:none"
           d="M 0,0 -3.287,0" /></g><g
         transform="translate(316.7134,51.9798)"
         id="g144"><path
           inkscape:connector-curvature="0"
           id="path146"
           style="fill:none;stroke:#000000;stroke-width:2;stroke-linecap:round;stroke-linejoin:round;stroke-miterlimit:10;stroke-opacity:1;stroke-dasharray:none"
           d="m 0,0 0,7.043 c 0,5.619 -1.232,11.169 -3.609,16.26 l 0,10e-4 c 2.833,-2.956 7.218,-1.478 7.218,-1.478 0,0 4.386,-1.478 7.219,1.478 L 10.827,23.303 C 8.45,18.212 7.218,12.662 7.218,7.043 L 7.218,0" /></g></g></g></svg>