<?xml version="1.0" encoding="UTF-8" standalone="no"?>
<!-- Created with Inkscape (http://www.inkscape.org/) -->

<svg
   xmlns:dc="http://purl.org/dc/elements/1.1/"
   xmlns:cc="http://creativecommons.org/ns#"
   xmlns:rdf="http://www.w3.org/1999/02/22-rdf-syntax-ns#"
   xmlns:svg="http://www.w3.org/2000/svg"
   xmlns="http://www.w3.org/2000/svg"
   xmlns:sodipodi="http://sodipodi.sourceforge.net/DTD/sodipodi-0.dtd"
   xmlns:inkscape="http://www.inkscape.org/namespaces/inkscape"
   width="100"
   height="100"
   id="svg3314"
   version="1.1"
   inkscape:version="0.48.4 r9939"
   sodipodi:docname="icon27_axe.svg">
  <defs
     id="defs3316" />
  <sodipodi:namedview
     id="base"
     pagecolor="#ffffff"
     bordercolor="#666666"
     borderopacity="1.0"
     inkscape:pageopacity="0.0"
     inkscape:pageshadow="2"
     inkscape:zoom="3.959798"
     inkscape:cx="49.8625"
     inkscape:cy="52.633867"
     inkscape:document-units="px"
     inkscape:current-layer="layer1"
     showgrid="false"
     inkscape:window-width="1307"
     inkscape:window-height="744"
     inkscape:window-x="59"
     inkscape:window-y="24"
     inkscape:window-maximized="1" />
  <metadata
     id="metadata3319">
    <rdf:RDF>
      <cc:Work
         rdf:about="">
        <dc:format>image/svg+xml</dc:format>
        <dc:type
           rdf:resource="http://purl.org/dc/dcmitype/StillImage" />
        <dc:title></dc:title>
      </cc:Work>
    </rdf:RDF>
  </metadata>
  <g
     inkscape:label="Layer 1"
     inkscape:groupmode="layer"
     id="layer1">
    <g
       id="g52"
       transform="matrix(1.25,0,0,-1.25,42.24436,27.067125)"
       style="fill:#008000">
      <path
         d="m 0,0 c 0,0 5.918,-3.448 7.835,-8.268 1.917,-4.818 13.317,-13.939 14.613,-15.234 1.296,-1.296 9.483,-10.831 10.882,-12.333 1.399,-1.503 5.596,-4.56 4.767,-6.115 l -2.487,-2.487 -6.115,-0.311 c 0,0 -3.264,9.897 -10.26,15.028 -6.995,5.13 -22.688,17.809 -24.869,25.279"
         style="fill:#008000;stroke:#000000;stroke-width:2;stroke-linecap:round;stroke-linejoin:round;stroke-miterlimit:10;stroke-opacity:1;stroke-dasharray:none"
         id="path54"
         inkscape:connector-curvature="0" />
    </g>
    <g
       id="g44"
       transform="matrix(1.25,0,0,-1.25,10.00011,39.927875)" />
    <g
       id="g48"
       transform="matrix(1.25,0,0,-1.25,12.759485,37.360125)">
      <path
         id="path50"
         style="fill:none;stroke:#000000;stroke-width:2;stroke-linecap:round;stroke-linejoin:round;stroke-miterlimit:10;stroke-opacity:1;stroke-dasharray:none"
         d="m 0,0 c 0.576,-0.717 4.817,-5.684 13.021,-6.691 m -15.2285,4.6368 c 0,0 17.498,16.461 22.109,18.344 l 5.476,-5.475 c 0,0 -1.675,-1.987 -2.556,-4.111 -0.882,-2.125 -4.18,-1.901 -6.063,-3.783 -0.784,-0.785 -4.457,-5.597 -3.679,-13.007 0,0 -10.105,0.017 -15.287,8.032 z" />
    </g>
  </g>
</svg>
